<svg width="360" height="145" viewBox="0 0 360 145" fill="none" xmlns="http://www.w3.org/2000/svg">
<path d="M0 22C0 9.84974 9.84974 6.70387e-07 22 1.49735e-06L338 2.30048e-05C350.15 2.38317e-05 360 9.84976 360 22V123C360 135.15 350.15 145 338 145H22C9.84973 145 0 135.15 0 123V22Z" fill="#E7DFFF"/>
<path d="M46.939 45.7638V43.5638H51.799C51.399 41.0238 49.799 40.3438 47.939 40.3438C46.239 40.3438 44.759 40.9038 44.259 42.9038H40.919C41.739 38.7638 45.119 37.6438 47.939 37.6438C51.159 37.6438 55.139 39.1238 55.139 44.8838C55.139 50.6438 51.159 52.1238 47.939 52.1238C45.119 52.1238 41.739 51.0038 40.919 46.8638H44.259C44.759 48.8638 46.239 49.4238 47.939 49.4238C49.919 49.4238 51.579 48.6638 51.859 45.7638H46.939ZM56.6543 51.8838V37.8838H59.8943V43.3838H64.2743L67.1543 37.8838H70.4543L66.7343 44.6638L70.6543 51.8838H67.2543L64.1343 45.9038H59.8943V51.8838H56.6543ZM70.6637 44.8838C70.6637 39.1238 74.6437 37.6438 77.8637 37.6438C81.0837 37.6438 85.0637 39.1238 85.0637 44.8838C85.0637 50.6438 81.0837 52.1238 77.8637 52.1238C74.6437 52.1238 70.6637 50.6438 70.6637 44.8838ZM73.9037 44.8838C73.9037 48.5038 75.7037 49.4238 77.8637 49.4238C80.0237 49.4238 81.8237 48.5038 81.8237 44.8838C81.8237 41.2638 80.0237 40.3438 77.8637 40.3438C75.7037 40.3438 73.9037 41.2638 73.9037 44.8838ZM86.459 37.8838H89.699V43.3638H97.219V37.8838H100.459V51.8838H97.219V45.8838H89.699V51.8838H86.459V37.8838ZM101.855 44.8838C101.855 39.1238 105.835 37.6438 109.055 37.6438C112.275 37.6438 116.255 39.1238 116.255 44.8838C116.255 50.6438 112.275 52.1238 109.055 52.1238C105.835 52.1238 101.855 50.6438 101.855 44.8838ZM105.095 44.8838C105.095 48.5038 106.895 49.4238 109.055 49.4238C111.215 49.4238 113.015 48.5038 113.015 44.8838C113.015 41.2638 111.215 40.3438 109.055 40.3438C106.895 40.3438 105.095 41.2638 105.095 44.8838ZM125.07 51.8838L121.01 40.5838H120.79V51.8838H117.65V37.8838H123.09L127.21 49.1838H127.43L131.55 37.8838H136.97V51.8838H133.83V40.5838H133.61L129.55 51.8838H125.07ZM151.899 37.8838V51.8838H148.659V42.9838L141.819 51.8838H138.979V37.8838H142.219V46.7638L149.059 37.8838H151.899ZM166.1 51.8838H162.86V46.0238H160.24H159.74L156.62 51.8838H153.1L156.64 45.6638C154.92 45.2038 153.5 44.2038 153.5 42.0638C153.5 38.2438 157.48 37.8838 160.24 37.8838H166.1V51.8838ZM156.74 42.0638C156.74 43.5838 158.56 43.5838 160.7 43.5838H162.86V40.5838H160.7C158.54 40.5838 156.74 40.5838 156.74 42.0638Z" fill="#8338EC"/>
<path d="M173.49 51.8838V37.8838H180.55C183.31 37.8838 186.79 38.2438 186.79 41.9438C186.79 43.1038 186.29 43.9038 185.59 44.4638V44.6038C186.57 45.1838 187.29 46.1038 187.29 47.5838C187.29 51.4838 183.31 51.8838 180.55 51.8838H173.49ZM176.73 49.1838H180.09C182.23 49.1838 184.05 49.1238 184.05 47.5038C184.05 45.9238 182.53 45.8638 181.39 45.8638H176.73V49.1838ZM176.73 43.4238H181.39C181.95 43.4238 183.55 43.3038 183.55 42.0438C183.55 40.6838 182.25 40.5838 180.09 40.5838H176.73V43.4238ZM194.546 49.1838H191.926V51.8838H188.686V37.8838H194.546C197.306 37.8838 201.286 39.0438 201.286 43.5238C201.286 48.0038 197.306 49.1838 194.546 49.1838ZM191.926 46.4838H194.086C196.226 46.4838 198.046 45.8838 198.046 43.5238C198.046 41.1838 196.246 40.5838 194.086 40.5838H191.926V46.4838ZM202.494 37.8838H215.294V40.5838H205.734V43.5638H212.794V46.0838H205.734V49.1838H215.494V51.8838H202.494V37.8838ZM224.524 51.8838L220.464 40.5838H220.244V51.8838H217.104V37.8838H222.544L226.664 49.1838H226.884L231.004 37.8838H236.424V51.8838H233.284V40.5838H233.064L229.004 51.8838H224.524ZM238.432 37.8838H251.232V40.5838H241.672V43.5638H248.732V46.0838H241.672V49.1838H251.432V51.8838H238.432V37.8838ZM253.041 37.8838H256.281V43.3638H263.801V37.8838H267.041V51.8838H263.801V45.8838H256.281V51.8838H253.041V37.8838ZM281.957 37.8838V51.8838H278.717V42.9838L271.877 51.8838H269.037V37.8838H272.277V46.7638L279.117 37.8838H281.957ZM289.35 37.8838H292.59V43.3638H300.11V37.8838H303.35V51.8838H300.11V45.8838H292.59V51.8838H289.35V37.8838ZM314.586 37.8838L319.946 51.8838H316.546L315.486 49.0438H308.406L307.346 51.8838H303.946L309.306 37.8838H314.586ZM309.346 46.5238H314.546L312.346 40.5838H311.546L309.346 46.5238ZM62.748 65.8838H76.748V79.8838H73.508V68.5838H65.988V79.8838H62.748V65.8838ZM78.1441 72.8838C78.1441 67.1238 82.1241 65.6438 85.3441 65.6438C88.5641 65.6438 92.5441 67.1238 92.5441 72.8838C92.5441 78.6438 88.5641 80.1238 85.3441 80.1238C82.1241 80.1238 78.1441 78.6438 78.1441 72.8838ZM81.3841 72.8838C81.3841 76.5038 83.1841 77.4238 85.3441 77.4238C87.5041 77.4238 89.3041 76.5038 89.3041 72.8838C89.3041 69.2638 87.5041 68.3438 85.3441 68.3438C83.1841 68.3438 81.3841 69.2638 81.3841 72.8838ZM106.859 65.8838V79.8838H103.619V70.9838L96.7795 79.8838H93.9395V65.8838H97.1795V74.7638L104.019 65.8838H106.859ZM108.261 72.8838C108.261 67.1238 112.241 65.6438 115.461 65.6438C118.361 65.6438 121.881 66.8438 122.541 71.3038H119.221C118.821 68.9838 117.261 68.3438 115.461 68.3438C113.301 68.3438 111.501 69.2638 111.501 72.8838C111.501 76.5038 113.301 77.4238 115.461 77.4238C117.261 77.4238 118.821 76.7838 119.221 74.4638H122.541C121.881 78.9238 118.361 80.1238 115.461 80.1238C112.241 80.1238 108.261 78.6438 108.261 72.8838ZM123.842 79.8838V65.8838H127.082V71.3838H131.462L134.342 65.8838H137.642L133.922 72.6638L137.842 79.8838H134.442L131.322 73.9038H127.082V79.8838H123.842ZM157.152 65.8838V79.8838H153.912V70.9838L147.072 79.8838H144.232V65.8838H147.472V74.7638L154.312 65.8838H157.152ZM163.945 72.8838C163.945 67.1238 167.925 65.6438 171.145 65.6438C174.045 65.6438 177.565 66.8438 178.225 71.3038H174.905C174.505 68.9838 172.945 68.3438 171.145 68.3438C168.985 68.3438 167.185 69.2638 167.185 72.8838C167.185 76.5038 168.985 77.4238 171.145 77.4238C172.945 77.4238 174.505 76.7838 174.905 74.4638H178.225C177.565 78.9238 174.045 80.1238 171.145 80.1238C167.925 80.1238 163.945 78.6438 163.945 72.8838ZM185.385 77.1838H182.765V79.8838H179.525V65.8838H185.385C188.145 65.8838 192.125 67.0438 192.125 71.5238C192.125 76.0038 188.145 77.1838 185.385 77.1838ZM182.765 74.4838H184.925C187.065 74.4838 188.885 73.8838 188.885 71.5238C188.885 69.1838 187.085 68.5838 184.925 68.5838H182.765V74.4838ZM201.969 65.8838L207.329 79.8838H203.929L202.869 77.0438H195.789L194.729 79.8838H191.329L196.689 65.8838H201.969ZM196.729 74.5238H201.929L199.729 68.5838H198.929L196.729 74.5238ZM207.924 79.8838V65.8838H214.984C217.744 65.8838 221.224 66.2438 221.224 69.9438C221.224 71.1038 220.724 71.9038 220.024 72.4638V72.6038C221.004 73.1838 221.724 74.1038 221.724 75.5838C221.724 79.4838 217.744 79.8838 214.984 79.8838H207.924ZM211.164 77.1838H214.524C216.664 77.1838 218.484 77.1238 218.484 75.5038C218.484 73.9238 216.964 73.8638 215.824 73.8638H211.164V77.1838ZM211.164 71.4238H215.824C216.384 71.4238 217.984 71.3038 217.984 70.0438C217.984 68.6838 216.684 68.5838 214.524 68.5838H211.164V71.4238ZM223.119 65.8838H226.359V71.3638H233.879V65.8838H237.119V79.8838H233.879V73.8838H226.359V79.8838H223.119V65.8838ZM239.115 65.8838H251.915V68.5838H242.355V71.5638H249.415V74.0838H242.355V77.1838H252.115V79.8838H239.115V65.8838ZM253.725 65.8838H256.965V71.3638H264.485V65.8838H267.725V79.8838H264.485V73.8838H256.965V79.8838H253.725V65.8838ZM282.641 65.8838V79.8838H279.401V70.9838L272.561 79.8838H269.721V65.8838H272.961V74.7638L279.801 65.8838H282.641ZM284.643 65.8838H297.443V68.5838H287.883V71.5638H294.943V74.0838H287.883V77.1838H297.643V79.8838H284.643V65.8838ZM112.646 100.884C112.646 95.1238 116.626 93.6438 119.846 93.6438C122.746 93.6438 126.266 94.8438 126.926 99.3038H123.606C123.206 96.9838 121.646 96.3438 119.846 96.3438C117.686 96.3438 115.886 97.2638 115.886 100.884C115.886 104.504 117.686 105.424 119.846 105.424C121.646 105.424 123.206 104.784 123.606 102.464H126.926C126.266 106.924 122.746 108.124 119.846 108.124C116.626 108.124 112.646 106.644 112.646 100.884ZM131.607 107.884V96.5838H126.827V93.8838H139.627V96.5838H134.847V107.884H131.607ZM139.619 100.884C139.619 95.1238 143.599 93.6438 146.819 93.6438C150.039 93.6438 154.019 95.1238 154.019 100.884C154.019 106.644 150.039 108.124 146.819 108.124C143.599 108.124 139.619 106.644 139.619 100.884ZM142.859 100.884C142.859 104.504 144.659 105.424 146.819 105.424C148.979 105.424 150.779 104.504 150.779 100.884C150.779 97.2638 148.979 96.3438 146.819 96.3438C144.659 96.3438 142.859 97.2638 142.859 100.884ZM168.334 93.8838V107.884H165.094V98.9838L158.254 107.884H155.414V93.8838H158.654V102.764L165.494 93.8838H168.334ZM177.756 107.884L173.696 96.5838H173.476V107.884H170.336V93.8838H175.776L179.896 105.184H180.116L184.236 93.8838H189.656V107.884H186.516V96.5838H186.296L182.236 107.884H177.756ZM191.064 100.884C191.064 95.1238 195.044 93.6438 198.264 93.6438C201.484 93.6438 205.464 95.1238 205.464 100.884C205.464 106.644 201.484 108.124 198.264 108.124C195.044 108.124 191.064 106.644 191.064 100.884ZM194.304 100.884C194.304 104.504 196.104 105.424 198.264 105.424C200.424 105.424 202.224 104.504 202.224 100.884C202.224 97.2638 200.424 96.3438 198.264 96.3438C196.104 96.3438 194.304 97.2638 194.304 100.884ZM206.259 100.884C206.259 95.1238 210.239 93.6438 213.459 93.6438C216.359 93.6438 219.879 94.8438 220.539 99.3038H217.219C216.819 96.9838 215.259 96.3438 213.459 96.3438C211.299 96.3438 209.499 97.2638 209.499 100.884C209.499 104.504 211.299 105.424 213.459 105.424C215.259 105.424 216.819 104.784 217.219 102.464H220.539C219.879 106.924 216.359 108.124 213.459 108.124C210.239 108.124 206.259 106.644 206.259 100.884ZM225.22 107.884V96.5838H220.44V93.8838H233.24V96.5838H228.46V107.884H225.22ZM246.752 93.8838V107.884H243.512V98.9838L236.672 107.884H233.832V93.8838H237.072V102.764L243.912 93.8838H246.752Z" fill="#2A2F33"/>
<path d="M34.9932 130.389C40.4556 130.389 45.7 128.958 49.6 125.564C53.5357 122.139 55.9064 116.886 55.9064 109.663C55.9064 98.0149 45.2264 91.1221 36.5922 91.8574C35.9267 91.914 35.1932 91.9628 34.4214 92.0142C33.0297 92.1068 31.5135 92.2077 30.0473 92.3779C27.7189 92.6481 25.2716 93.112 23.0429 94.0812C20.793 95.0595 18.7456 96.5624 17.2765 98.8986C15.813 101.226 15.0002 104.257 15 108.168C14.9996 115.841 17.089 121.452 20.7685 125.143C24.4452 128.831 29.4983 130.389 34.9932 130.389Z" stroke="#8338EC" stroke-width="3" stroke-miterlimit="10" stroke-linecap="round" stroke-linejoin="round"/>
<path d="M23.5853 103.425C26.3109 106.126 33.4989 110.176 35.999 112.653L42.4699 107.191" stroke="#8338EC" stroke-width="3" stroke-miterlimit="10" stroke-linecap="round" stroke-linejoin="round"/>
</svg>
