<svg width="360" height="145" viewBox="0 0 360 145" fill="none" xmlns="http://www.w3.org/2000/svg">
<path d="M0 22C0 9.84974 9.84974 6.70387e-07 22 1.49735e-06L338 2.30048e-05C350.15 2.38317e-05 360 9.84976 360 22V123C360 135.15 350.15 145 338 145H22C9.84973 145 0 135.15 0 123V22Z" fill="#E7DFFF"/>
<path d="M46.234 106.276C46.234 113.915 36.1988 120.018 30.1385 119.081C24.0781 118.145 18.3809 113.915 18.3809 106.276C18.3809 98.6372 24.4822 94.3375 31.3505 93.535C38.2189 92.7325 46.234 99.9551 46.234 106.276Z" stroke="#8338EC" stroke-width="3" stroke-miterlimit="10" stroke-linecap="round" stroke-linejoin="round"/>
<path d="M43.9119 37.7397L49.2719 51.7397H45.8719L44.8119 48.8997H37.7319L36.6719 51.7397H33.2719L38.6319 37.7397H43.9119ZM38.6719 46.3797H43.8719L41.6719 40.4397H40.8719L38.6719 46.3797ZM49.8672 37.7397H53.1072V51.7397H49.8672V37.7397ZM54.7016 46.7197V45.8197H60.1016V46.7197H54.7016ZM61.7031 37.7397H75.7031V51.7397H72.4631V40.4397H64.9431V51.7397H61.7031V37.7397ZM77.0992 44.7397C77.0992 38.9797 81.0792 37.4997 84.2992 37.4997C87.5192 37.4997 91.4992 38.9797 91.4992 44.7397C91.4992 50.4997 87.5192 51.9797 84.2992 51.9797C81.0792 51.9797 77.0992 50.4997 77.0992 44.7397ZM80.3392 44.7397C80.3392 48.3597 82.1392 49.2797 84.2992 49.2797C86.4592 49.2797 88.2592 48.3597 88.2592 44.7397C88.2592 41.1197 86.4592 40.1997 84.2992 40.1997C82.1392 40.1997 80.3392 41.1197 80.3392 44.7397ZM105.815 37.7397V51.7397H102.575V42.8397L95.7345 51.7397H92.8945V37.7397H96.1345V46.6197L102.975 37.7397H105.815ZM107.216 44.7397C107.216 38.9797 111.196 37.4997 114.416 37.4997C117.316 37.4997 120.836 38.6997 121.496 43.1597H118.176C117.776 40.8397 116.216 40.1997 114.416 40.1997C112.256 40.1997 110.456 41.1197 110.456 44.7397C110.456 48.3597 112.256 49.2797 114.416 49.2797C116.216 49.2797 117.776 48.6397 118.176 46.3197H121.496C120.836 50.7797 117.316 51.9797 114.416 51.9797C111.196 51.9797 107.216 50.4997 107.216 44.7397ZM122.797 51.7397V37.7397H126.037V43.2397H130.417L133.297 37.7397H136.597L132.877 44.5197L136.797 51.7397H133.397L130.277 45.7597H126.037V51.7397H122.797Z" fill="#8338EC"/>
<path d="M143.188 37.7397H157.188V51.7397H153.947V40.4397H146.428V51.7397H143.188V37.7397ZM158.584 44.7397C158.584 38.9797 162.564 37.4997 165.784 37.4997C169.004 37.4997 172.984 38.9797 172.984 44.7397C172.984 50.4997 169.004 51.9797 165.784 51.9797C162.564 51.9797 158.584 50.4997 158.584 44.7397ZM161.824 44.7397C161.824 48.3597 163.624 49.2797 165.784 49.2797C167.944 49.2797 169.744 48.3597 169.744 44.7397C169.744 41.1197 167.944 40.1997 165.784 40.1997C163.624 40.1997 161.824 41.1197 161.824 44.7397ZM179.77 37.7397H183.01V43.2197H190.53V37.7397H193.77V51.7397H190.53V45.7397H183.01V51.7397H179.77V37.7397ZM205.006 37.7397L210.366 51.7397H206.966L205.906 48.8997H198.826L197.766 51.7397H194.366L199.726 37.7397H205.006ZM199.766 46.3797H204.966L202.766 40.4397H201.966L199.766 46.3797ZM215.481 45.7197V43.2797L218.081 43.2597C218.781 43.1997 219.901 42.9197 219.901 41.8797C219.901 40.4997 218.481 40.4397 216.781 40.4397C215.221 40.4397 213.661 40.7197 213.421 42.6597H210.181C210.581 38.5597 214.121 37.7397 216.781 37.7397C219.541 37.7397 223.141 38.0997 223.141 41.7997C223.141 42.9997 222.541 43.7797 221.741 44.2997V44.5597C222.821 45.0797 223.641 45.9597 223.641 47.4397C223.641 51.3397 219.541 51.7397 216.781 51.7397C214.021 51.7397 210.441 50.9597 210.161 46.3197H213.401C213.621 48.7397 215.101 49.0397 216.781 49.0397C218.461 49.0397 220.401 48.8197 220.401 47.3597C220.401 46.1797 219.281 45.8197 218.241 45.7397L215.481 45.7197ZM225.043 51.7397V37.7397H232.103C234.863 37.7397 238.343 38.0997 238.343 41.7997C238.343 42.9597 237.843 43.7597 237.143 44.3197V44.4597C238.123 45.0397 238.843 45.9597 238.843 47.4397C238.843 51.3397 234.863 51.7397 232.103 51.7397H225.043ZM228.283 49.0397H231.643C233.783 49.0397 235.603 48.9797 235.603 47.3597C235.603 45.7797 234.083 45.7197 232.943 45.7197H228.283V49.0397ZM228.283 43.2797H232.943C233.503 43.2797 235.103 43.1597 235.103 41.8997C235.103 40.5397 233.803 40.4397 231.643 40.4397H228.283V43.2797ZM249.478 37.7397L254.838 51.7397H251.438L250.378 48.8997H243.298L242.238 51.7397H238.838L244.198 37.7397H249.478ZM244.238 46.3797H249.438L247.238 40.4397H246.438L244.238 46.3797ZM255.434 37.7397H258.674V43.2197H266.194V37.7397H269.434V51.7397H266.194V45.7397H258.674V51.7397H255.434V37.7397ZM284.35 37.7397V51.7397H281.11V42.8397L274.27 51.7397H271.43V37.7397H274.67V46.6197L281.51 37.7397H284.35ZM298.552 51.7397H295.312V45.8797H292.692H292.192L289.072 51.7397H285.552L289.092 45.5197C287.372 45.0597 285.952 44.0597 285.952 41.9197C285.952 38.0997 289.932 37.7397 292.692 37.7397H298.552V51.7397ZM289.192 41.9197C289.192 43.4397 291.012 43.4397 293.152 43.4397H295.312V40.4397H293.152C290.992 40.4397 289.192 40.4397 289.192 41.9197ZM307.971 51.7397L303.911 40.4397H303.691V51.7397H300.551V37.7397H305.991L310.111 49.0397H310.331L314.451 37.7397H319.871V51.7397H316.731V40.4397H316.511L312.451 51.7397H307.971ZM323.619 48.3197C324.599 48.3197 325.319 48.6997 325.319 51.0797C325.319 53.4797 324.079 54.4997 322.819 54.4397L322.759 53.6197C323.719 53.4797 324.159 52.7997 324.179 51.9397C323.999 51.9597 323.819 51.9797 323.619 51.9797C322.639 51.9797 321.919 51.6197 321.919 50.1597C321.919 48.6997 322.639 48.3197 323.619 48.3197ZM51.2441 79.7397V65.7397H54.4841V71.2397H58.8641L61.7441 65.7397H65.0441L61.3241 72.5197L65.2441 79.7397H61.8441L58.7241 73.7597H54.4841V79.7397H51.2441ZM65.2441 77.0397C66.7641 77.1597 67.1041 76.8797 67.1041 72.7397V68.4397H67.0841V65.7397H79.5441V79.7397H76.3041V68.4397H70.3241V73.6997C70.3241 77.2997 69.8441 80.9397 65.2441 79.7397V77.0397ZM81.5371 65.7397H84.7771V71.1797H87.0371C87.6971 66.6997 91.2371 65.4997 94.1371 65.4997C97.3571 65.4997 101.337 66.9797 101.337 72.7397C101.337 78.4997 97.3571 79.9797 94.1371 79.9797C91.1371 79.9797 87.4771 78.6997 86.9971 73.8797H84.7771V79.7397H81.5371V65.7397ZM90.1771 72.7397C90.1771 76.3597 91.9771 77.2797 94.1371 77.2797C96.2971 77.2797 98.0971 76.3597 98.0971 72.7397C98.0971 69.1197 96.2971 68.1997 94.1371 68.1997C91.9771 68.1997 90.1771 69.1197 90.1771 72.7397ZM115.129 65.7397V79.7397H111.889V76.1397H108.669C105.909 76.1397 102.529 74.9997 102.529 71.2997V65.7397H105.769V70.8997C105.769 73.2397 107.249 73.4397 109.129 73.4397H111.889V65.7397H115.129ZM117.123 65.7397H129.923V68.4397H120.363V71.4197H127.423V73.9397H120.363V77.0397H130.123V79.7397H117.123V65.7397ZM131.732 79.7397V65.7397H138.792C141.552 65.7397 145.032 66.0997 145.032 69.7997C145.032 70.9597 144.532 71.7597 143.832 72.3197V72.4597C144.812 73.0397 145.532 73.9597 145.532 75.4397C145.532 79.3397 141.552 79.7397 138.792 79.7397H131.732ZM134.972 77.0397H138.332C140.472 77.0397 142.292 76.9797 142.292 75.3597C142.292 73.7797 140.772 73.7197 139.632 73.7197H134.972V77.0397ZM134.972 71.2797H139.632C140.192 71.2797 141.792 71.1597 141.792 69.8997C141.792 68.5397 140.492 68.4397 138.332 68.4397H134.972V71.2797ZM160.888 65.7397H164.128V79.7397H160.888V65.7397ZM146.928 79.7397V65.7397H150.168V68.4397H152.788C155.548 68.4397 159.528 69.6197 159.528 74.0997C159.528 78.5797 155.548 79.7397 152.788 79.7397H146.928ZM150.168 77.0397H152.328C154.488 77.0397 156.288 76.4397 156.288 74.0997C156.288 71.7397 154.468 71.1397 152.328 71.1397H150.168V77.0397ZM173.957 79.7397L169.897 68.4397H169.677V79.7397H166.537V65.7397H171.977L176.097 77.0397H176.317L180.437 65.7397H185.857V79.7397H182.717V68.4397H182.497L178.437 79.7397H173.957ZM192.656 72.7397C192.656 66.9797 196.636 65.4997 199.856 65.4997C202.756 65.4997 206.276 66.6997 206.936 71.1597H203.616C203.216 68.8397 201.656 68.1997 199.856 68.1997C197.696 68.1997 195.896 69.1197 195.896 72.7397C195.896 76.3597 197.696 77.2797 199.856 77.2797C201.656 77.2797 203.216 76.6397 203.616 74.3197H206.936C206.276 78.7797 202.756 79.9797 199.856 79.9797C196.636 79.9797 192.656 78.4997 192.656 72.7397ZM207.236 77.0397C208.756 77.1597 209.096 76.8797 209.096 72.7397V68.4397H209.076V65.7397H221.536V79.7397H218.296V68.4397H212.316V73.6997C212.316 77.2997 211.836 80.9397 207.236 79.7397V77.0397ZM222.929 72.7397C222.929 66.9797 226.909 65.4997 230.129 65.4997C233.349 65.4997 237.329 66.9797 237.329 72.7397C237.329 78.4997 233.349 79.9797 230.129 79.9797C226.909 79.9797 222.929 78.4997 222.929 72.7397ZM226.169 72.7397C226.169 76.3597 227.969 77.2797 230.129 77.2797C232.289 77.2797 234.089 76.3597 234.089 72.7397C234.089 69.1197 232.289 68.1997 230.129 68.1997C227.969 68.1997 226.169 69.1197 226.169 72.7397ZM238.725 79.7397V65.7397H245.785C248.545 65.7397 252.025 66.0997 252.025 69.7997C252.025 70.9597 251.525 71.7597 250.825 72.3197V72.4597C251.805 73.0397 252.525 73.9597 252.525 75.4397C252.525 79.3397 248.545 79.7397 245.785 79.7397H238.725ZM241.965 77.0397H245.325C247.465 77.0397 249.285 76.9797 249.285 75.3597C249.285 73.7797 247.765 73.7197 246.625 73.7197H241.965V77.0397ZM241.965 71.2797H246.625C247.185 71.2797 248.785 71.1597 248.785 69.8997C248.785 68.5397 247.485 68.4397 245.325 68.4397H241.965V71.2797ZM263.16 65.7397L268.52 79.7397H265.12L264.06 76.8997H256.98L255.92 79.7397H252.52L257.88 65.7397H263.16ZM257.92 74.3797H263.12L260.92 68.4397H260.12L257.92 74.3797ZM276.535 79.7397L272.475 68.4397H272.255V79.7397H269.115V65.7397H274.555L278.675 77.0397H278.895L283.015 65.7397H288.435V79.7397H285.295V68.4397H285.075L281.015 79.7397H276.535ZM308.754 65.7397V79.7397H305.514V70.8397L298.674 79.7397H295.834V65.7397H299.074V74.6197L305.914 65.7397H308.754ZM122.207 100.74C122.207 94.9797 126.187 93.4997 129.407 93.4997C132.307 93.4997 135.827 94.6997 136.487 99.1597H133.167C132.767 96.8397 131.207 96.1997 129.407 96.1997C127.247 96.1997 125.447 97.1197 125.447 100.74C125.447 104.36 127.247 105.28 129.407 105.28C131.207 105.28 132.767 104.64 133.167 102.32H136.487C135.827 106.78 132.307 107.98 129.407 107.98C126.187 107.98 122.207 106.5 122.207 100.74ZM137.187 100.74C137.187 94.9797 141.167 93.4997 144.387 93.4997C147.287 93.4997 150.807 94.6997 151.467 99.1597H148.147C147.747 96.8397 146.187 96.1997 144.387 96.1997C142.227 96.1997 140.427 97.1197 140.427 100.74C140.427 104.36 142.227 105.28 144.387 105.28C146.187 105.28 147.747 104.64 148.147 102.32H151.467C150.807 106.78 147.287 107.98 144.387 107.98C141.167 107.98 137.187 106.5 137.187 100.74ZM166.728 93.7397H169.968V107.74H166.728V93.7397ZM152.768 107.74V93.7397H156.008V96.4397H158.628C161.388 96.4397 165.368 97.6197 165.368 102.1C165.368 106.58 161.388 107.74 158.628 107.74H152.768ZM156.008 105.04H158.168C160.328 105.04 162.128 104.44 162.128 102.1C162.128 99.7397 160.308 99.1397 158.168 99.1397H156.008V105.04ZM171.377 105.04C172.897 105.16 173.237 104.88 173.237 100.74V96.4397H173.217V93.7397H185.677V107.74H182.437V96.4397H176.457V101.7C176.457 105.3 175.977 108.94 171.377 107.74V105.04ZM187.67 107.74V93.7397H190.91V99.2397H195.29L198.17 93.7397H201.47L197.75 100.52L201.67 107.74H198.27L195.15 101.76H190.91V107.74H187.67ZM211.91 93.7397L217.27 107.74H213.87L212.81 104.9H205.73L204.67 107.74H201.27L206.63 93.7397H211.91ZM206.67 102.38H211.87L209.67 96.4397H208.87L206.67 102.38ZM225.285 107.74L221.225 96.4397H221.005V107.74H217.865V93.7397H223.305L227.425 105.04H227.645L231.765 93.7397H237.185V107.74H234.045V96.4397H233.825L229.765 107.74H225.285Z" fill="#2A2F33"/>
</svg>
