<svg width="360" height="147" viewBox="0 0 360 147" fill="none" xmlns="http://www.w3.org/2000/svg">
<path d="M0 22C0 9.84974 9.84974 6.70387e-07 22 1.49735e-06L338 2.30048e-05C350.15 2.38317e-05 360 9.84976 360 22V123C360 135.15 350.15 145 338 145H22C9.84973 145 0 135.15 0 123V22Z" fill="#E7DFFF"/>
<path d="M46.5645 51.8838L42.5045 40.5838H42.2845V51.8838H39.1445V37.8838H44.5845L48.7045 49.1838H48.9245L53.0445 37.8838H58.4645V51.8838H55.3245V40.5838H55.1045L51.0445 51.8838H46.5645ZM59.8727 44.8838C59.8727 39.1238 63.8527 37.6438 67.0727 37.6438C70.2927 37.6438 74.2727 39.1238 74.2727 44.8838C74.2727 50.6438 70.2927 52.1238 67.0727 52.1238C63.8527 52.1238 59.8727 50.6438 59.8727 44.8838ZM63.1127 44.8838C63.1127 48.5038 64.9127 49.4238 67.0727 49.4238C69.2327 49.4238 71.0327 48.5038 71.0327 44.8838C71.0327 41.2638 69.2327 40.3438 67.0727 40.3438C64.9127 40.3438 63.1127 41.2638 63.1127 44.8838ZM75.668 37.8838H78.908V43.3638H86.428V37.8838H89.668V51.8838H86.428V45.8838H78.908V51.8838H75.668V37.8838ZM104.584 37.8838V51.8838H101.344V42.9838L94.5041 51.8838H91.6641V37.8838H94.9041V46.7638L101.744 37.8838H104.584ZM109.966 51.8838V40.5838H105.186V37.8838H117.986V40.5838H113.206V51.8838H109.966ZM117.978 44.8838C117.978 39.1238 121.958 37.6438 125.178 37.6438C128.398 37.6438 132.378 39.1238 132.378 44.8838C132.378 50.6438 128.398 52.1238 125.178 52.1238C121.958 52.1238 117.978 50.6438 117.978 44.8838ZM121.218 44.8838C121.218 48.5038 123.018 49.4238 125.178 49.4238C127.338 49.4238 129.138 48.5038 129.138 44.8838C129.138 41.2638 127.338 40.3438 125.178 40.3438C123.018 40.3438 121.218 41.2638 121.218 44.8838ZM139.633 49.1838H137.013V51.8838H133.773V37.8838H139.633C142.393 37.8838 146.373 39.0438 146.373 43.5238C146.373 48.0038 142.393 49.1838 139.633 49.1838ZM137.013 46.4838H139.173C141.313 46.4838 143.133 45.8838 143.133 43.5238C143.133 41.1838 141.333 40.5838 139.173 40.5838H137.013V46.4838ZM160.502 37.8838V51.8838H157.262V42.9838L150.422 51.8838H147.582V37.8838H150.822V46.7638L157.662 37.8838H160.502ZM162.504 37.8838H165.744V43.3638H173.264V37.8838H176.504V51.8838H173.264V45.8838H165.744V51.8838H162.504V37.8838ZM178.5 37.8838H189.5V40.5838H181.74V51.8838H178.5V37.8838Z" fill="#8338EC"/>
<path d="M194.482 44.8838C194.482 39.1238 198.462 37.6438 201.682 37.6438C204.582 37.6438 208.102 38.8438 208.762 43.3038H205.442C205.042 40.9838 203.482 40.3438 201.682 40.3438C199.522 40.3438 197.722 41.2638 197.722 44.8838C197.722 48.5038 199.522 49.4238 201.682 49.4238C203.482 49.4238 205.042 48.7838 205.442 46.4638H208.762C208.102 50.9238 204.582 52.1238 201.682 52.1238C198.462 52.1238 194.482 50.6438 194.482 44.8838ZM210.063 37.8838H213.303V43.3638H220.822V37.8838H224.063V51.8838H220.822V45.8838H213.303V51.8838H210.063V37.8838ZM238.979 37.8838V51.8838H235.739V42.9838L228.899 51.8838H226.059V37.8838H229.299V46.7638L236.139 37.8838H238.979ZM243.38 51.8838H239.68L243.62 44.6638L239.88 37.8838H243.58L246.48 43.4038H249.36V37.8838H252.6V43.4038H255.88L258.52 37.8838H262.12L258.6 44.8438L262.42 51.8838H258.72L255.62 45.9238H252.6V51.8838H249.36V45.9238H246.48L243.38 51.8838ZM263.129 37.8838H275.929V40.5838H266.369V43.5638H273.429V46.0838H266.369V49.1838H276.129V51.8838H263.129V37.8838ZM277.738 37.8838H280.978V43.3638H288.498V37.8838H291.738V51.8838H288.498V45.8838H280.978V51.8838H277.738V37.8838ZM306.654 37.8838V51.8838H303.414V42.9838L296.574 51.8838H293.734V37.8838H296.974V46.7638L303.814 37.8838H306.654ZM320.856 51.8838H317.616V46.0238H314.996H314.496L311.376 51.8838H307.856L311.396 45.6638C309.676 45.2038 308.256 44.2038 308.256 42.0638C308.256 38.2438 312.236 37.8838 314.996 37.8838H320.856V51.8838ZM311.496 42.0638C311.496 43.5838 313.316 43.5838 315.456 43.5838H317.616V40.5838H315.456C313.296 40.5838 311.496 40.5838 311.496 42.0638ZM64.1055 79.8838V65.8838H67.3455V77.1838H74.8655V65.8838H78.1055V77.1838H79.5055V81.6838H77.2055L76.7455 79.8838H64.1055ZM80.707 65.8838H93.507V68.5838H83.947V71.5638H91.007V74.0838H83.947V77.1838H93.707V79.8838H80.707V65.8838ZM95.3164 65.8838H98.5564V71.3638H106.076V65.8838H109.316V79.8838H106.076V73.8838H98.5564V79.8838H95.3164V65.8838ZM116.703 65.8838H119.943V71.3638H127.463V65.8838H130.703V79.8838H127.463V73.8838H119.943V79.8838H116.703V65.8838ZM141.939 65.8838L147.299 79.8838H143.899L142.839 77.0438H135.759L134.699 79.8838H131.299L136.659 65.8838H141.939ZM136.699 74.5238H141.899L139.699 68.5838H138.899L136.699 74.5238ZM153.285 79.8838V65.8838H160.345C163.105 65.8838 166.585 66.2438 166.585 69.9438C166.585 71.1038 166.085 71.9038 165.385 72.4638V72.6038C166.365 73.1838 167.085 74.1038 167.085 75.5838C167.085 79.4838 163.105 79.8838 160.345 79.8838H153.285ZM156.525 77.1838H159.885C162.025 77.1838 163.845 77.1238 163.845 75.5038C163.845 73.9238 162.325 73.8638 161.185 73.8638H156.525V77.1838ZM156.525 71.4238H161.185C161.745 71.4238 163.345 71.3038 163.345 70.0438C163.345 68.6838 162.045 68.5838 159.885 68.5838H156.525V71.4238ZM182.44 65.8838H185.68V79.8838H182.44V65.8838ZM168.48 79.8838V65.8838H171.72V68.5838H174.34C177.1 68.5838 181.08 69.7638 181.08 74.2438C181.08 78.7238 177.1 79.8838 174.34 79.8838H168.48ZM171.72 77.1838H173.88C176.04 77.1838 177.84 76.5838 177.84 74.2438C177.84 71.8838 176.02 71.2838 173.88 71.2838H171.72V77.1838ZM191.33 68.5838V71.1638H195.15C197.91 71.1638 201.89 71.5638 201.89 75.5238C201.89 79.4838 197.91 79.8838 195.15 79.8838H188.09V65.8838H201.09V68.5838H191.33ZM191.33 77.1838H194.69C196.83 77.1838 198.65 77.1238 198.65 75.5238C198.65 73.9238 196.83 73.8638 194.69 73.8638H191.33V77.1838ZM209.145 77.1838H206.525V79.8838H203.285V65.8838H209.145C211.905 65.8838 215.885 67.0438 215.885 71.5238C215.885 76.0038 211.905 77.1838 209.145 77.1838ZM206.525 74.4838H208.685C210.825 74.4838 212.645 73.8838 212.645 71.5238C212.645 69.1838 210.845 68.5838 208.685 68.5838H206.525V74.4838ZM225.728 65.8838L231.088 79.8838H227.688L226.628 77.0438H219.548L218.488 79.8838H215.088L220.448 65.8838H225.728ZM220.488 74.5238H225.688L223.488 68.5838H222.688L220.488 74.5238ZM231.684 65.8838H234.924V71.3638H242.444V65.8838H245.684V79.8838H242.444V73.8838H234.924V79.8838H231.684V65.8838ZM247.68 65.8838H250.92V71.3638H258.44V65.8838H261.68V79.8838H258.44V73.8838H250.92V79.8838H247.68V65.8838ZM277.636 65.8838H280.876V79.8838H277.636V65.8838ZM263.676 79.8838V65.8838H266.916V68.5838H269.536C272.296 68.5838 276.276 69.7638 276.276 74.2438C276.276 78.7238 272.296 79.8838 269.536 79.8838H263.676ZM266.916 77.1838H269.076C271.236 77.1838 273.036 76.5838 273.036 74.2438C273.036 71.8838 271.216 71.2838 269.076 71.2838H266.916V77.1838ZM283.285 65.8838H296.085V68.5838H286.525V71.5638H293.585V74.0838H286.525V77.1838H296.285V79.8838H283.285V65.8838ZM138.882 107.884V96.5838H134.102V93.8838H146.902V96.5838H142.122V107.884H138.882ZM146.894 100.884C146.894 95.1238 150.874 93.6438 154.094 93.6438C157.314 93.6438 161.294 95.1238 161.294 100.884C161.294 106.644 157.314 108.124 154.094 108.124C150.874 108.124 146.894 106.644 146.894 100.884ZM150.134 100.884C150.134 104.504 151.934 105.424 154.094 105.424C156.254 105.424 158.054 104.504 158.054 100.884C158.054 97.2638 156.254 96.3438 154.094 96.3438C151.934 96.3438 150.134 97.2638 150.134 100.884ZM162.689 107.884V93.8838H169.749C172.509 93.8838 175.989 94.2438 175.989 97.9438C175.989 99.1038 175.489 99.9038 174.789 100.464V100.604C175.769 101.184 176.489 102.104 176.489 103.584C176.489 107.484 172.509 107.884 169.749 107.884H162.689ZM165.929 105.184H169.289C171.429 105.184 173.249 105.124 173.249 103.504C173.249 101.924 171.729 101.864 170.589 101.864H165.929V105.184ZM165.929 99.4238H170.589C171.149 99.4238 172.749 99.3038 172.749 98.0438C172.749 96.6838 171.449 96.5838 169.289 96.5838H165.929V99.4238ZM187.125 93.8838L192.485 107.884H189.085L188.025 105.044H180.945L179.885 107.884H176.485L181.845 93.8838H187.125ZM181.885 102.524H187.085L184.885 96.5838H184.085L181.885 102.524ZM198.94 105.184H196.32V107.884H193.08V93.8838H198.94C201.7 93.8838 205.68 95.0438 205.68 99.5238C205.68 104.004 201.7 105.184 198.94 105.184ZM196.32 102.484H198.48C200.62 102.484 202.44 101.884 202.44 99.5238C202.44 97.1838 200.64 96.5838 198.48 96.5838H196.32V102.484ZM220.849 93.8838H224.089V107.884H220.849V93.8838ZM206.889 107.884V93.8838H210.129V96.5838H212.749C215.509 96.5838 219.489 97.7638 219.489 102.244C219.489 106.724 215.509 107.884 212.749 107.884H206.889ZM210.129 105.184H212.289C214.449 105.184 216.249 104.584 216.249 102.244C216.249 99.8838 214.429 99.2838 212.289 99.2838H210.129V105.184Z" fill="#2A2F33"/>
<path d="M9.17972 95.6502C9.17972 95.6502 20.7081 108.019 31.2132 105.443C41.7182 102.867 51.0305 74.9986 48.3423 88.0541C45.654 101.11 40.2524 133.42 43.5726 127.972C46.8927 122.525 60.195 103.158 63.8641 94.9528C67.5332 86.748 58.7695 111.801 64.7672 120.356C70.9092 129.118 90.519 131.802 90.519 131.802" stroke="#8338EC" stroke-width="3" stroke-linecap="round"/>
<path d="M91.0452 132.035L85.1465 119.867" stroke="#8338EC" stroke-width="3" stroke-linecap="round"/>
<path d="M77.897 136.079L90.918 132.32" stroke="#8338EC" stroke-width="3" stroke-linecap="round"/>
</svg>
