<svg width="17" height="20" viewBox="0 0 17 20" fill="none" xmlns="http://www.w3.org/2000/svg">
<path fill-rule="evenodd" clip-rule="evenodd" d="M8.53 1.99535e-05C10.79 0.01002 12.95 0.91002 14.53 2.49002C16.12 4.08002 17.01 6.23002 17 8.46002V8.51002C16.94 11.54 15.24 14.33 13.12 16.51C11.92 17.74 10.59 18.83 9.14 19.75C8.75 20.08 8.18 20.08 7.79 19.75C5.64 18.35 3.74 16.59 2.2 14.54C0.85 12.76 0.08 10.62 0 8.39002C0.02 3.74002 3.84 -0.00998005 8.53 1.99535e-05ZM8.53 11.26C9.24 11.26 9.92 10.99 10.42 10.5C10.94 9.99002 11.231 9.31102 11.231 8.60002C11.231 7.12002 10.02 5.93002 8.53 5.93002C7.04 5.93002 5.84 7.12002 5.84 8.60002C5.84 10.061 7.02 11.24 8.5 11.26H8.53Z" fill="#2A2F33"/>
</svg>
