<svg width="250" height="207" viewBox="0 0 250 207" fill="none" xmlns="http://www.w3.org/2000/svg">
<rect width="250" height="168" fill="white"/>
<path fill-rule="evenodd" clip-rule="evenodd" d="M142.03 162.262C166.173 162.262 187.36 144.303 175.461 119.91C163.563 95.5176 207.773 96.3054 220.76 79.4468C236.598 58.8869 232.011 -28.3865 130.338 24.8196C114.051 33.3426 72.2227 16.0514 58.3481 24.631C42.0163 34.73 19.0383 55.4095 42.0163 76.5927C53.3347 87.0271 12.7553 114.11 30.5283 138.369C47.8703 162.04 60.0267 139.475 86.4296 144.303C112.833 149.131 124.099 162.262 142.03 162.262Z" fill="#E7DFFF"/>
<path d="M114.007 119.825C114.007 119.825 119.566 117.21 121.642 115.391C123.717 113.572 126.297 109.052 126.297 109.052C126.297 109.052 154.638 129.52 173.117 126.6C177.375 125.927 185.671 123.097 186.201 118.111C187.645 104.494 167.657 101.015 172.023 94.1099C174.688 89.895 182.968 96.168 182.968 96.168L217.307 113.059C217.307 113.059 205.443 142.302 176.654 143.474C141.239 144.915 114.007 119.825 114.007 119.825Z" fill="white"/>
<path fill-rule="evenodd" clip-rule="evenodd" d="M86.7818 5.30155C86.4595 5.17502 84.7286 3.05564 82.5312 2.66991C81.5327 2.49462 82.439 3.7661 81.34 3.77754C78.067 3.81162 72.748 3.19671 71.7627 3.77754C71.0304 4.20785 72.6432 5.71113 71.7627 5.78015C63.4555 6.43129 50.7823 14.7257 48.0327 18.7498C47.1576 20.0304 54.2348 17.8576 53.1072 18.4908C51.8416 19.2013 50.438 23.8542 49.5988 27.4477C49.0178 29.9224 48.652 33.1071 48.5228 36.5715C48.4153 39.5626 48.4583 40.0575 48.8887 41.6929C49.3836 43.522 49.7709 44.0599 50.438 43.8017C50.6747 43.7156 50.7823 43.3929 50.7823 42.7903C50.7823 42.3169 51.0405 40.8967 51.3633 39.6271L51.9227 37.3462L52.1595 38.293C52.4607 39.3904 54.2252 42.7903 55.8176 45.265C55.9034 45.3963 56.2729 45.2292 56.6061 44.4239C56.9098 43.69 56.7866 42.5175 57.3023 41.261C58.4773 38.3987 60.7842 34.6773 63.4555 31.6984C67.4034 27.2958 68.7132 22.2008 72.414 18.1108C79.3203 10.4781 87.9883 5.77521 86.7818 5.30155Z" fill="white"/>
<path fill-rule="evenodd" clip-rule="evenodd" d="M53.2054 19.5297C52.0975 20.4206 50.453 27.6466 50.4248 27.7674C49.8438 30.242 49.2837 38.8355 49.8562 40.4624C50.4287 42.0894 52.0317 36.2245 52.0317 36.2245C52.0317 36.2245 54.4545 42.516 56.5954 44.241C56.6869 44.3147 54.0507 36.4571 53.2054 31.87C52.0895 25.8148 53.8359 19.0227 53.2054 19.5297Z" fill="white"/>
<path fill-rule="evenodd" clip-rule="evenodd" d="M94.4991 146.085C96.5648 145.633 100.05 144.059 101.385 143.521C102.719 142.983 106.786 137.24 108.249 130.763C109.304 125.986 109.842 119.187 109.239 118.046C109.15 117.884 108.825 114.792 109.691 115.802C111.617 118.046 113.903 121.569 121.117 115.256C123.082 113.536 125.686 111.317 125 109.355C123.082 103.866 114.765 92.8126 113.498 91.9753C111.982 90.9741 104.32 91.8249 92.9176 88.4594C79.9865 84.6427 74.602 73.4039 69.5416 74.8668C65.4493 76.05 55.6443 83.3208 53.1836 87.9251C41.5665 109.662 55.6443 124.894 58.8504 129.268L61.9633 130.613L62.0709 133.389L62.2215 135.132C62.5012 138.467 62.6088 138.768 64.1151 139.887C67.8808 142.749 75.3047 145.417 82.0184 146.364C85.1386 146.795 91.9168 146.644 94.4991 146.085Z" fill="white"/>
<path fill-rule="evenodd" clip-rule="evenodd" d="M63.1873 132.372L63.3379 134.115C63.6177 137.451 63.7253 137.752 65.2316 138.871C67.4531 140.559 70.9477 142.18 74.8186 143.42C77.5093 144.282 80.3818 144.96 83.1348 145.348C86.255 145.778 93.0333 145.628 95.6155 145.068C96.8919 144.792 86.3932 136.544 80.2083 138.871C75.4586 140.658 64.2638 127.025 68.8154 123.464C73.9214 119.468 64.565 103.709 64.2638 100.288C63.9625 96.8667 62.7761 96.0493 62.7415 96.1693C62.7069 96.2893 62.7069 96.6986 62.8 97.6849C63.2014 101.936 63.1873 132.372 63.1873 132.372Z" fill="white"/>
<path fill-rule="evenodd" clip-rule="evenodd" d="M62.0664 99.3114C62.5181 99.2235 62.9556 99.5184 63.0436 99.9702C64.6676 108.314 71.5372 113.962 83.821 116.916C96.1778 119.888 104.595 119.727 109.03 116.556C109.404 116.288 109.125 118.581 108.851 118.756C105.958 120.611 96.1237 123.379 84.3878 120.878C69.3822 117.679 62.3366 105.062 61.4076 100.289C61.3197 99.8368 61.6146 99.3993 62.0664 99.3114Z" fill="#8338EC"/>
<path fill-rule="evenodd" clip-rule="evenodd" d="M55.8093 84.2572C56.2087 84.0286 71.1126 101.11 91.5658 104.976C112.019 108.842 116.971 106.383 117.767 101.11C117.836 100.655 118.26 100.341 118.716 100.41C119.171 100.479 119.484 100.903 119.415 101.358C118.406 108.042 108.942 109.632 91.2855 106.619C73.8506 103.644 61.8971 96.5751 55.4998 85.3943C55.2713 84.9948 55.4098 84.4857 55.8093 84.2572Z" fill="#8338EC"/>
<path fill-rule="evenodd" clip-rule="evenodd" d="M141.655 83.3099C141.095 83.1163 140.493 82.6859 140.105 82.191L139.46 81.3948L141.741 79.1354C145.248 75.6924 147.938 72.1634 150.262 67.9673C151.037 66.5686 152.995 61.8992 152.995 61.4473C152.995 61.2966 153.232 60.6941 153.511 60.0701C153.942 59.1663 154.264 58.822 155.19 58.3056C156.287 57.66 157.535 57.4449 158.073 57.8107C159.106 58.4993 159.106 60.6726 158.073 64.4168C156.933 68.5268 155.405 71.4748 152.242 75.714C151.747 76.3595 150.821 77.6291 150.154 78.5113C148.368 80.8784 147.206 82.0188 145.636 82.9011C144.086 83.7618 143.182 83.8694 141.655 83.3099ZM157.105 81.3729L158.654 82.0615C158.976 82.2098 162.52 83.9127 166.777 85.9582C173.64 89.2561 182.357 93.4448 182.411 93.4448C182.497 93.4448 182.9 92.511 182.992 91.422C183.207 89.0765 184.003 85.8918 184.928 83.6754C185.359 82.6856 185.703 81.4485 185.703 81.3409C185.703 81.2918 185.353 81.1506 184.78 80.9196C184.099 80.6447 183.101 80.2423 182.002 79.716C176.579 77.1123 165.971 71.7973 164.658 71.0011C163.367 70.2479 163.109 70.1834 163.109 70.6783C163.109 71.3239 161.796 74.3149 160.785 75.9288C160.247 76.8111 159.192 78.4034 158.439 79.4578L157.105 81.3729ZM182.045 89.5712C182.662 89.9288 181.593 90.4534 181.334 90.5395C179.814 90.6686 178.024 90.3827 176.557 89.5281C175.791 88.9843 169.752 85.6298 165.747 83.4046C163.916 82.3873 162.51 81.606 162.226 81.4372C161.322 80.8993 160.462 80.3183 160.311 80.1461C159.859 79.5651 160.29 79.3069 161.559 79.4145C162.322 79.4792 180.712 88.7987 182.045 89.5712ZM100.449 143.764L100.45 143.764L100.452 143.763L100.452 143.763C100.852 143.594 101.197 143.449 101.458 143.343C102.793 142.805 106.859 137.063 108.323 130.586C109.377 125.809 109.915 119.009 109.313 117.868C108.949 117.208 111.108 119.424 112.715 121.074C113.202 121.574 113.639 122.022 113.939 122.323C123.321 131.64 137.286 139.129 151.79 142.636C159.02 144.401 164.163 145.025 171.07 145.025C182.669 145.025 191.814 142.744 200.12 137.73C200.514 137.492 200.883 137.274 201.235 137.066L201.237 137.064C204.132 135.35 205.857 134.329 210.578 129.015C215.873 123.054 220.584 109.218 222.155 104.441C222.843 102.289 224.522 93.7304 224.522 91.5946C224.522 89.0659 223.64 87.8719 222.435 86.6453C220.304 84.558 217.421 83.8049 215.032 84.7087L213.913 85.139L213.569 83.9986C213.074 82.2771 212.041 80.8999 210.449 79.867C208.082 78.2962 207.738 78.1886 205.607 78.1886C203.95 78.1886 203.498 78.2747 202.444 78.7696L201.217 79.3291L200.959 78.5544C200.464 76.9621 198.804 74.7422 197.516 74.1001C196.374 73.5306 194.397 73.4784 193.019 73.7343C190.006 74.2938 187.855 75.6925 186.972 77.6506C186.714 78.2532 186.391 78.7266 186.262 78.7266C186.155 78.7266 181.916 77.5426 176.859 75.3047C176.006 74.926 175.204 74.5709 174.452 74.2374L174.452 74.2373C165.371 70.2124 163.403 69.34 163.582 68.2471C163.732 67.3218 163.689 66.8054 163.431 66.0092C162.979 64.675 162.463 64.3092 161 64.3092C160.3 64.3092 160.021 64.3092 159.939 64.1822C159.885 64.0984 159.915 63.9592 159.967 63.7282C160.655 60.4359 160.634 58.5423 159.902 57.3373C159.407 56.5411 158.826 56.2183 157.492 56.0247C156.717 55.9171 156.352 55.9816 155.491 56.455C154.91 56.7563 154.415 56.9715 154.372 56.9284C154.329 56.8854 154.48 55.7019 154.716 54.3032C156.481 43.9528 155.118 35.035 150.62 25.5669C150.577 25.4763 150.527 25.3692 150.47 25.2466C149.103 22.3112 143.605 10.5083 127.883 4.55267C127.171 4.28312 126.498 4.02249 125.851 3.77199L125.851 3.77194C120.495 1.69891 116.935 0.32077 108.344 0.335071C98.7157 0.351101 95.4547 1.71225 89.1068 4.61723C88.2245 5.02608 87.4498 5.26278 87.3853 5.17671C87.3207 5.06912 86.9119 4.8109 86.503 4.59571C86.0942 4.38053 85.2119 3.84257 84.5664 3.4122C82.7158 2.16413 81.5753 1.64769 80.9943 1.7768C80.3273 1.94895 80.3273 2.50843 80.9943 2.76665C81.2741 2.87424 81.5968 3.24005 81.7259 3.60587C82.0057 4.38053 82.3285 4.4666 82.5221 3.82105C82.6082 3.58435 82.7373 3.4122 82.8019 3.45524C82.8264 3.46748 82.9083 3.50583 83.0333 3.56436C83.3478 3.7116 83.9351 3.9865 84.5664 4.29445C85.4486 4.72482 86.417 5.17671 86.6752 5.2843C87.1486 5.45645 86.998 5.58556 84.9537 6.79059C76.9704 11.4816 70.4718 18.7763 66.8352 27.0824C66.2758 28.3305 65.7808 29.1052 65.2644 29.5355C63.9518 30.633 61.3696 33.7531 60.7671 34.9797C60.4443 35.6467 59.7557 36.6796 59.2177 37.2821C58.7013 37.8847 58.1418 38.6593 57.9481 38.9821C57.776 39.3264 57.6038 39.5631 57.5393 39.5201C57.4963 39.4555 57.5608 38.4011 57.7114 37.1746C58.0342 34.3126 58.0342 33.5595 57.776 33.4949C57.3887 33.3873 56.8292 34.8936 56.5925 36.7657C56.4203 37.9062 56.3773 39.6276 56.4849 41.3922L56.614 44.1895L55.0862 41.7149C54.5599 40.8861 54.0417 40.0572 53.6742 39.4693L53.6735 39.4682C53.4402 39.0951 53.2678 38.8193 53.1926 38.7024C52.6331 37.8847 52.3103 36.6581 52.547 36.2493C52.6761 36.0126 52.6546 35.905 52.4394 35.905C51.9876 35.905 51.1053 37.3467 50.5243 39.0036C50.2446 39.7783 49.9648 40.4238 49.8788 40.4238C49.556 40.4238 49.7066 32.7202 50.0509 30.2456C50.761 25.361 52.6331 19.3358 53.4723 19.3358C53.6445 19.3358 53.7951 19.2497 53.7951 19.1206C53.7951 18.7333 53.2356 18.8839 52.7837 19.3788C51.7724 20.4763 50.4382 23.8547 49.599 27.4482C49.018 29.9229 48.6522 33.1076 48.5231 36.572C48.4155 39.5631 48.4585 40.058 48.8889 41.6934C49.3838 43.5225 49.7712 44.0604 50.4382 43.8022C50.6749 43.7161 50.7825 43.3934 50.7825 42.7909C50.7825 42.3174 51.0407 40.8972 51.3635 39.6276L51.923 37.3467L52.1597 38.2935C52.461 39.3909 54.2255 42.7909 55.8178 45.2655C56.9153 46.9439 56.9368 47.0515 57.3026 49.6767C57.4963 51.1615 58.0988 54.773 59.4975 60.3283C60.7333 65.2369 67.6808 70.1061 69.4155 71.3219L69.4159 71.3222C69.6443 71.4822 69.7822 71.5789 69.8048 71.604C70.02 71.8407 70.3212 71.9698 70.4934 71.9052C70.687 71.8407 70.7946 71.9268 70.7946 72.1635C70.7946 72.3786 70.9452 72.6584 71.1174 72.7875C71.3326 72.9381 71.4832 73.5191 71.5262 74.5305C71.6338 76.5532 73.1401 80.4265 74.3021 81.6961C75.0553 82.5138 76.6261 82.8581 78.3691 82.5568C79.5096 82.3847 79.8323 82.2556 79.7247 81.9974C79.6602 81.8252 80.069 82.0404 80.6285 82.4708C87.1701 87.463 93.7978 90.4541 101.243 91.7452C104.127 92.2401 108.904 92.5198 111.507 92.3262C113.81 92.1755 113.81 92.1756 113.702 92.6274C113.552 93.2299 113.745 93.5958 116.908 98.9538C119.426 103.193 119.641 103.473 122.439 106.335C128.378 112.467 134.855 117.223 142.193 120.903C149.1 124.346 160.128 127.207 170.21 128.111C180.291 129.015 187.532 119.762 187.51 117.395C187.467 114.146 187.015 112.016 185.918 109.95C184.842 107.949 184.132 107.26 180.904 105.108C177.311 102.72 175.094 100.761 173.631 98.6741C172.706 97.3615 172.361 95.8767 172.361 95.0805C172.361 94.5641 173.028 93.4021 174.018 93.1654C174.922 92.9287 175.094 92.9502 176.106 93.4451C176.708 93.7249 178.279 94.4565 179.57 95.0805C180.883 95.683 182.152 96.2856 182.41 96.4147C183.172 96.6262 183.494 98.1164 183.668 98.9239L183.668 98.9243L183.668 98.9261L183.669 98.9277C183.707 99.1065 183.739 99.2514 183.766 99.3412C184.067 100.46 185.493 101.905 186.413 102.397C188.028 103.261 192.008 103.376 193.105 102.193C193.385 101.891 194.313 101.521 194.504 101.633C194.695 101.745 195.386 102.677 195.386 103.43C195.408 104.721 196.075 105.904 197.495 107.088C200.185 109.326 202.272 109.864 204.381 108.874C205.478 108.357 206.378 108.156 206.378 108.156C206.378 108.156 207.275 109.3 207.329 109.692C207.751 112.749 212.278 114.031 213.483 114.16C213.759 114.187 214.297 114.069 214.842 113.949C215.572 113.789 216.317 113.625 216.474 113.802C216.781 114.148 211.331 123.162 210.578 124.303C203.412 135.062 189.468 141.646 172.404 142.335C161.322 142.787 147.701 139.688 135.888 134.05C128.335 130.414 121.643 125.959 114.477 119.719C113.229 118.643 111.787 117.417 111.271 116.986C110.754 116.577 109.528 115.179 108.581 113.888C106.989 111.736 106.085 110.961 106.085 111.693C106.085 112.016 107.118 113.995 108.301 115.953C108.775 116.728 109.076 117.266 108.968 117.18C108.861 117.094 108.516 118.643 108.194 120.623C107.139 126.971 105.396 133.233 103.632 137.127C102.663 139.236 100.807 140.811 100.247 141.241C98.1814 142.812 95.0889 143.518 90.8067 143.949C85.3841 144.487 77.4008 143.282 71.3111 141.001C69.6972 140.398 65.5441 138.655 65.2644 138.462C65.2476 138.445 65.1523 137.826 65.0192 136.962C64.9817 136.718 64.9412 136.455 64.8986 136.181C64.1239 130.866 63.048 110.402 63.048 100.934C63.048 97.0172 63.005 96.1564 62.7467 96.1564C62.2088 96.1564 61.9936 96.6729 61.7569 98.5235C61.2189 102.741 61.3265 124.754 61.9075 129.381L62.0366 130.435L61.305 130.026C60.1861 129.381 55.9254 125.056 54.4406 123.054C53.1837 121.344 52.4366 119.152 51.8777 117.513C51.7477 117.132 51.6278 116.78 51.5141 116.472C48.394 107.821 49.4914 98.1146 53.7951 89.3782C57.4532 81.9328 61.9506 77.8013 68.5352 75.8001C69.6111 75.4773 70.5579 75.133 70.6655 75.0469C71.0744 74.6596 68.4491 74.8532 67.0074 75.3051C62.3164 76.7469 57.4102 80.6847 54.0748 85.72C49.3838 92.7781 47.275 103.193 48.7598 112.08C49.1041 114.189 50.5028 118.751 50.8901 119.074C50.9244 119.108 51.1014 119.479 51.369 120.041L51.3691 120.041C52.1092 121.593 53.5426 124.6 54.5698 125.959C55.8178 127.659 59.5835 131.361 61.1544 132.501L62.1442 133.211L62.2949 134.954C62.5746 138.289 62.6822 138.591 64.1885 139.71C67.9542 142.572 75.378 145.24 82.0918 146.187C85.2119 146.617 91.9902 146.466 94.5724 145.907C96.2318 145.544 98.8072 144.457 100.448 143.765L100.449 143.764L100.449 143.764ZM167.305 125.701C154.802 124.604 139.696 118.643 128.765 109.433C124.16 105.538 118.178 97.9639 115.811 93.7679C115.316 92.9071 114.95 92.4983 114.52 92.3907C114.068 92.2616 114.455 92.1325 116.306 91.8312C124.117 90.4971 131.713 87.2478 137.846 82.6213L138.75 81.9543L139.008 82.5783C139.589 83.977 141.827 85.3972 143.484 85.3972C144.151 85.3972 146.389 84.3858 147.744 83.4606L148.67 82.8365L149.423 83.5897C150.111 84.2783 150.241 84.3213 151.532 84.3213C153.016 84.3213 154.802 83.6542 155.792 82.7074L156.33 82.2125L157.858 83.2239C158.676 83.8048 160.957 85.0744 162.915 86.0858C165.841 87.5921 168.94 89.3351 171.888 91.1426L172.361 91.4439L171.91 92.0464C171.436 92.6919 170.554 93.9185 170.554 95.7906C170.554 97.8994 172.747 101.688 176.945 104.29C180.243 106.335 185.918 110.356 185.703 116.233C185.677 116.943 184.885 118.708 183.831 120.3C183.142 121.311 181.227 122.818 179.484 123.7C176.514 125.185 171.285 126.045 167.305 125.701ZM52.5685 29.1048C53.1495 29.2339 53.5368 29.4276 53.4507 29.5137C53.171 29.7934 51.6862 29.6643 51.3419 29.32C50.804 28.8036 50.9331 28.4377 51.6862 28.2871C52.0736 28.2226 52.6545 27.8998 52.9773 27.577C53.3001 27.2542 53.5798 27.1036 53.5798 27.2112C53.5798 27.4909 52.5039 28.4808 51.966 28.696C51.6217 28.8466 51.7293 28.9112 52.5685 29.1048ZM61.1329 29.4489C61.757 29.1046 61.6279 28.8679 60.8962 28.9755C60.1646 29.0831 60.1216 28.9971 60.595 28.2654C60.7887 27.9857 60.8962 27.5768 60.8532 27.3617C60.7887 27.0819 60.638 27.211 60.2937 27.8996C60.0355 28.3945 59.6697 28.8034 59.4976 28.8034C58.9596 28.8034 58.9166 29.2338 59.433 29.4274C60.1001 29.7072 60.6165 29.7072 61.1329 29.4489ZM53.6875 17.7001C53.1711 17.7861 51.5572 18.4317 50.137 19.1418C48.6952 19.8304 47.4687 20.4114 47.3826 20.3899C45.1877 20.1532 48.2434 16.495 53.7951 12.7508C59.1101 9.15726 62.7037 7.26364 66.0391 6.29531C68.1263 5.6928 70.4718 5.60672 71.1389 6.10165C71.5047 6.38139 71.3756 6.4029 69.7833 6.42442C66.3403 6.42442 62.3594 8.18893 55.8824 12.5141C52.5255 14.752 48.6307 17.9583 48.6307 18.4747C48.6307 18.5823 49.2547 18.3671 50.0294 18.0228C51.6863 17.2697 53.3862 16.8824 54.1394 17.0545C54.9356 17.2697 54.7634 17.5494 53.6875 17.7001ZM62.0153 19.5513C64.038 19.1424 64.1241 19.1209 64.1241 18.9057C64.1241 18.7981 63.3494 18.6905 62.3811 18.6475L60.6381 18.5829L62.252 16.7539C63.1342 15.7425 64.1671 14.7312 64.5329 14.4945C65.3291 13.978 65.3721 13.6122 64.7266 13.397L64.2317 13.2464L64.7696 13.0527C65.0709 12.9451 65.6304 12.9021 66.0177 12.9666C66.5987 13.0527 66.7278 13.0097 66.6632 12.7084C66.5987 12.4072 66.362 12.3426 65.3076 12.3641C62.2304 12.4072 60.9178 13.2249 63.3279 13.6122C63.995 13.7198 64.5544 13.8919 64.5544 13.9995C64.5544 14.0856 64.4468 14.1717 64.3177 14.1717C63.9089 14.1717 60.4444 17.6792 60.0141 18.5399C59.347 19.8095 59.7128 20.0032 62.0153 19.5513ZM76.2174 11.2021C75.5934 11.2452 75.4428 11.3528 75.4858 11.654L75.4924 11.6978C75.5166 11.857 75.5305 11.9485 75.4948 11.9762C75.4467 12.0137 75.3082 11.9352 74.9828 11.7506L74.9263 11.7186C74.5175 11.5034 74.4745 11.3958 74.7112 11.2236C74.8618 11.0945 75.2706 10.9009 75.5934 10.8363L76.1959 10.6857L75.744 10.2123C75.5073 9.93254 75.3782 9.67432 75.4428 9.58825C75.6149 9.4161 77.7237 9.6528 78.025 9.8895C78.1541 9.99709 78.3478 9.97558 78.4769 9.84647C78.7781 9.54521 79.187 9.78191 79.187 10.2553C79.187 10.5135 79.1224 10.5351 78.9288 10.3414C78.7566 10.1692 78.606 10.1692 78.4123 10.3199C78.2402 10.4705 78.1111 10.4705 78.0035 10.2984C77.9389 10.1908 77.5301 10.0832 77.0997 10.0832C76.7027 10.0832 76.5149 10.0832 76.4766 10.1588C76.4422 10.2267 76.5281 10.3554 76.6908 10.5996C77.0341 11.1359 77.0138 11.1376 76.2248 11.2015L76.2174 11.2021ZM72.9465 5.4775C72.9465 5.19777 72.6882 4.70284 72.3655 4.38007L71.7629 3.77755L74.9907 3.90666C76.7767 3.99274 78.7995 4.1864 79.5096 4.38007C80.2197 4.55221 81.0374 4.68132 81.3386 4.68132C81.7905 4.68132 81.7044 4.59525 80.8652 4.14337C79.402 3.39022 77.5299 3.02441 73.9363 2.76619C69.6326 2.46493 67.4593 2.87378 67.8681 3.9497C67.9327 4.16488 68.277 4.27248 68.7934 4.27248C69.8478 4.27248 71.5693 4.89651 72.1503 5.4775C72.7743 6.10154 72.9465 6.10154 72.9465 5.4775ZM62.4455 62.4586C64.1885 64.6965 66.4909 67.2357 67.5669 68.0964C68.2124 68.6129 68.7719 69.0432 68.8149 69.0432C68.8364 69.0432 68.363 68.0534 67.7605 66.8484C65.3289 62.0067 63.9087 57.1866 63.2417 51.6349C63.091 50.4083 62.8543 49.3755 62.5961 48.9451C62.0797 48.0844 62.0797 46.9654 62.6176 45.911C62.8974 45.3515 63.048 44.6414 63.048 43.8668V42.6832L62.0151 43.7592C61.0038 44.8136 60.0354 45.2439 60.0354 44.5984C60.0354 44.125 61.6278 41.844 62.467 41.1339C63.1341 40.5744 63.2201 40.3808 63.4353 38.7023C63.586 37.691 63.9303 35.905 64.21 34.7214C64.5112 33.5379 64.6834 32.5266 64.6404 32.4835C64.4897 32.3329 59.4329 38.1406 58.7443 39.9934C58.5931 40.4002 58.1848 41.1124 57.8621 41.5428L57.3026 42.2611C57.3026 42.2611 57.4764 43.267 57.6684 44.5312C57.8624 45.8084 57.9534 46.6864 58.0345 47.4684C58.143 48.5145 58.2336 49.3888 58.5291 50.8172C58.8734 52.5817 59.2177 54.1095 59.3038 54.2171C59.3684 54.3462 59.6481 55.336 59.9278 56.4335C60.5303 58.8651 61.5417 61.2751 62.4455 62.4586ZM149.767 82.8151L149.315 82.3632C149.315 82.3632 156.816 72.8342 158.159 69.3231C159.185 66.6436 159.789 65.8838 160.603 65.8838C161.058 65.8838 161.43 65.9877 161.602 66.246C161.904 66.6979 162.194 67.2573 161.807 69.1725C161.161 72.2711 160.171 74.3154 157.202 78.7266C156.513 79.738 155.631 80.8569 155.244 81.2443C154.34 82.0835 152.306 82.9442 151.123 83.1379C150.37 83.2455 150.155 83.2024 149.767 82.8151Z" fill="#2A2F33"/>
<path d="M209.351 103.865C212.029 96.5711 211.623 95.017 211.159 94.8649C211.159 94.8649 210.137 95.4459 209.685 96.6725C208.846 98.9749 205.973 105 204.897 106.076C203.628 107.346 203.628 107.346 202.336 107.346C201.045 107.346 197.322 105.401 196.815 103.485C196.004 100.418 199.496 89.7651 199.582 89.1626L199.001 88.7537C198.614 89.1195 193.576 104.398 186.951 100.417C186.192 99.9608 184.584 97.8129 184.455 96.6725C183.738 93.3586 187.028 81.771 187.587 79.3909C188.088 77.2605 190.695 75.2832 193.901 75.2832C198.829 75.2832 198.167 79.5906 200.374 81.1085C201.352 81.7811 202.96 80.5616 203.455 80.4691C206.231 79.9527 207.295 80.554 209.33 82.1691C210.901 83.4157 212.063 85.8831 213.342 86.7525C214.053 87.2354 214.807 86.5752 215.054 86.4512C216.066 85.943 218.239 86.3221 218.841 86.7525C219.724 87.1376 221.889 89.2183 222.231 90.4284C223.781 95.9131 218.887 108.072 217.039 110.353C213.981 114.129 206.674 111.159 209.351 103.865Z" fill="white"/>
<path fill-rule="evenodd" clip-rule="evenodd" d="M85.6425 83.8795C91.5385 87.6021 97.6181 90.0337 104.547 90.7008C110.013 91.2172 117.382 90.5071 122.676 88.7857C127.13 87.3439 133.155 83.35 137.179 79.9716C144.99 73.4301 149.918 63.2121 152.07 52.3668C152.371 50.839 152.83 46.9986 152.809 43.1898C152.809 38.7571 150.858 26.6435 144.947 19.6589C132.756 5.25315 112.716 -1.23624 95.874 4.30852C89.7985 6.30869 83.3299 9.9326 78.4452 14.6666C72.2909 20.6703 67.7506 28.8472 65.943 37.1964C64.0494 46.0189 66.5127 56.5629 70.7948 65.2133C74.2162 72.0992 79.8541 80.1998 85.6425 83.8795ZM143.097 57.8753C139.051 70.0332 128.507 79.1139 115.252 81.8683C113.229 82.2771 111.831 82.4278 108.99 82.4708C106.989 82.5353 104.988 82.5138 104.579 82.4708C95.3044 81.3518 88.2464 77.9304 81.7478 71.4319C78.9074 68.5699 77.7024 67.0206 75.9379 63.965C73.162 59.1234 71.6772 54.1741 71.2253 48.2135C69.676 27.7926 84.287 10.7716 104.859 9.00705C112.928 8.31847 121.88 10.7931 128.679 15.6132C131.197 17.3992 135.759 21.9181 137.179 24.0269C137.76 24.8661 143.398 33.1076 144.388 37.8417C145.657 43.9959 145.163 51.6995 143.097 57.8753Z" fill="white"/>
<path fill-rule="evenodd" clip-rule="evenodd" d="M152.817 43.1897C152.817 57.6331 145.984 73.4235 137.167 80.1672C132.96 83.3846 127.463 87.2804 122.676 88.7855C115.66 90.9913 104.547 90.7007 104.547 90.7007C104.547 90.7007 115.884 89.1851 120.086 87.4943C132.133 82.6458 138.71 75.203 142.771 68.0618C150.787 53.9655 152.817 42.8388 152.817 43.1897Z" fill="white"/>
<path fill-rule="evenodd" clip-rule="evenodd" d="M104.793 79.889C99.048 79.1574 93.3456 77.1131 88.7407 74.079C86.0078 72.293 81.8763 68.0969 79.8751 65.1059C77.0132 60.8022 75.1196 56.1973 74.1943 51.248C73.5272 47.6545 73.5487 42.1242 74.2158 38.918C74.9044 35.6472 75.7866 33.1511 77.3575 29.9879C79.1865 26.3298 81.1232 23.64 84.0282 20.735C88.9774 15.7857 94.7228 12.6441 101.566 11.1378C103.782 10.6644 111.808 10.277 112.088 10.6429C112.153 10.7504 112.583 11.0302 113.035 11.2669C113.487 11.5251 114.692 12.4289 115.682 13.3111C117.166 14.6022 117.833 15.4199 119.125 17.4427C120.007 18.8198 120.717 20.0679 120.717 20.1755C120.717 20.4122 121.406 20.8426 121.793 20.8426C122.331 20.8426 122.697 19.2287 122.804 16.3883C122.869 14.8174 122.998 13.5263 123.084 13.5263C123.385 13.5263 126.699 15.3554 128.248 16.3883C131.282 18.411 134.317 21.2514 136.554 24.221C137.566 25.5551 137.716 25.8994 137.716 26.7171C137.716 27.4702 137.932 28.0512 138.599 29.2132C140.277 32.1397 141.59 35.8194 142.386 39.8863C142.902 42.6192 142.902 47.7836 142.364 50.6455C140.901 58.5213 136.554 66.3539 130.895 71.3247C126.097 75.5208 120.997 78.103 114.972 79.3726C112.906 79.8245 106.709 80.1257 104.793 79.889ZM89.4079 65.1701C89.6016 64.9549 89.7307 64.6321 89.6661 64.4815C89.6467 64.4363 89.3773 64.3096 88.9829 64.1242L88.9829 64.1242C88.0635 63.6919 86.4652 62.9405 85.7725 62.1575C83.0181 59.0158 82.0068 56.6703 81.3827 51.8287C80.7802 47.1161 81.2864 43.9303 82.3726 38.81C82.9025 36.3123 84.3108 34.2491 85.187 32.9655C85.7827 32.0927 86.1325 31.5804 85.7928 31.5368C84.9536 31.4077 84.8245 31.4723 83.9422 32.3115C82.0486 34.119 81.1879 35.5608 80.2841 38.3366C78.8854 42.6834 78.6151 54.4303 81.3827 59.7259C84.1504 65.0215 88.913 65.7295 89.4079 65.1701ZM120.007 47.0955C119.642 50.4383 118.092 55.2725 116.284 57.3813C115.445 58.3711 112.365 60.071 109.764 59.7268C107.253 59.3942 105.288 58.2205 103.61 55.7028C102.168 53.5295 101.424 50.8914 100.92 47.5689C100.051 41.8315 103.847 35.1528 105.482 33.4959C107.139 31.7959 108.322 31.1934 109.829 31.1719C111.292 31.1719 112.239 31.4946 113.724 32.5491C116.435 34.4427 120.717 40.5998 120.007 47.0955ZM91.0001 29.2993C91.4305 28.8044 91.4951 28.5677 91.3659 27.6424C91.2799 26.7816 91.1077 26.4373 90.6558 26.0715C89.8597 25.426 88.8698 25.426 88.1382 26.1146C87.6217 26.6095 87.5572 26.7816 87.6217 27.9651C87.6863 29.2347 87.7293 29.3208 88.4394 29.7081C89.3862 30.2246 90.3115 30.0739 91.0001 29.2993ZM104.428 16.022C100.554 18.7979 98.8758 19.9384 97.1329 21.0143C95.7557 21.875 95.3253 21.8965 95.3253 21.1219C95.3253 20.713 95.6266 20.2611 96.4012 19.551L97.4772 18.5612L95.3899 18.2814C93.0444 17.9802 90.7634 17.3346 90.2685 16.8397C89.4508 16.0005 90.1609 15.8068 92.4849 16.2372C93.5178 16.4093 95.519 16.6245 96.9392 16.6676L99.5214 16.7752L101.394 15.4195C105.504 12.45 109.764 10.7715 111.808 11.288C113.078 11.5892 112.927 11.9335 111.486 12.1057C109.829 12.2993 108.817 12.8588 104.428 16.022Z" fill="white"/>
<path d="M109.958 56.7777C109.958 56.6701 110.087 56.5625 110.259 56.5625C110.431 56.5625 110.647 56.6701 110.711 56.7777C110.776 56.9068 110.647 56.9929 110.41 56.9929C110.152 56.9929 109.958 56.9068 109.958 56.7777Z" fill="white"/>
<path d="M111.249 56.5837C111.249 56.347 111.787 56.1318 112.389 56.1318C112.863 56.1534 112.863 56.1534 112.454 56.4546C111.981 56.8204 111.249 56.885 111.249 56.5837Z" fill="white"/>
<path d="M107.914 56.025C107.849 55.8528 107.763 55.5516 107.699 55.3794C107.634 55.1642 107.742 55.0566 108.022 55.0566C108.258 55.0566 108.452 55.1858 108.452 55.3579C108.452 55.53 108.517 55.8098 108.581 56.0034C108.667 56.2402 108.603 56.3477 108.366 56.3477C108.172 56.3477 107.957 56.1971 107.914 56.025Z" fill="white"/>
<path d="M109.054 55.4867C108.947 54.8412 109.183 54.626 109.958 54.626C110.195 54.626 110.388 54.8412 110.475 55.207C110.647 55.831 110.367 56.1323 109.614 56.1323C109.269 56.1323 109.119 55.9816 109.054 55.4867Z" fill="white"/>
<path d="M106.86 55.5943C106.451 55.2715 106.451 55.2715 106.903 55.2715C107.182 55.2715 107.376 55.4006 107.376 55.5943C107.376 55.9816 107.376 55.9816 106.86 55.5943Z" fill="white"/>
<path d="M111.185 55.5731C110.905 55.2934 111.034 54.4541 111.378 54.325C112.002 54.0883 112.282 54.1959 112.411 54.7554C112.497 55.0782 112.54 55.3579 112.497 55.3794C112.325 55.5731 111.314 55.7022 111.185 55.5731Z" fill="white"/>
<path d="M113.1 55.1211C113.035 55.0566 112.971 54.7769 112.971 54.5186C112.971 54.1528 113.143 54.0022 113.659 53.8946C114.111 53.8085 114.391 53.8516 114.52 54.0237C114.735 54.368 114.735 54.7984 114.542 54.906C114.154 55.1211 113.25 55.2503 113.1 55.1211Z" fill="white"/>
<path d="M105.87 54.4536C105.87 54.1954 106.063 53.9802 106.343 53.9156C106.903 53.765 106.881 53.7435 106.989 54.3029C107.032 54.6257 106.924 54.7548 106.472 54.7979C105.999 54.8624 105.87 54.7764 105.87 54.4536Z" fill="white"/>
<path d="M107.505 54.4751C107.204 54.1523 107.397 53.5498 107.806 53.5498C108.086 53.5498 108.237 53.7004 108.237 53.9587C108.237 54.3675 107.742 54.7118 107.505 54.4751Z" fill="white"/>
<path d="M108.796 53.8302C108.624 53.4214 108.99 53.1201 109.7 53.1201C110.023 53.1201 110.173 53.2492 110.173 53.529C110.173 53.7657 109.98 53.9809 109.7 54.0669C108.99 54.2391 108.947 54.2391 108.796 53.8302Z" fill="white"/>
<path d="M115.015 53.765C115.08 53.6574 115.187 53.5498 115.252 53.5498C115.316 53.5498 115.295 53.6574 115.23 53.765C115.166 53.8941 115.058 53.9802 114.994 53.9802C114.929 53.9802 114.951 53.8941 115.015 53.765Z" fill="white"/>
<path d="M110.733 53.3993C110.561 52.9689 110.776 52.7537 111.464 52.6461C111.852 52.6031 112.024 52.6892 112.067 52.9904C112.218 53.7005 110.991 54.0879 110.733 53.3993Z" fill="white"/>
<path d="M105.568 53.0335C105.375 52.3233 105.418 52.2588 105.977 52.2588C106.278 52.2588 106.515 52.3449 106.515 52.4525C106.515 52.56 106.58 52.7967 106.644 52.9689C106.709 53.1841 106.58 53.3132 106.214 53.3777C105.805 53.4638 105.654 53.3777 105.568 53.0335Z" fill="white"/>
<path d="M112.755 52.7968C112.755 52.4095 112.906 52.2374 113.315 52.1298C113.917 51.9791 114.262 52.2804 114.262 52.969C114.262 53.2487 114.09 53.3348 113.509 53.3348C112.841 53.3348 112.755 53.2702 112.755 52.7968Z" fill="white"/>
<path d="M104.923 52.7964C104.858 52.6243 104.901 52.4736 105.009 52.4736C105.138 52.4736 105.224 52.6243 105.224 52.7964C105.224 52.9686 105.181 53.1192 105.138 53.1192C105.095 53.1192 105.009 52.9686 104.923 52.7964Z" fill="white"/>
<path d="M107.096 52.9693C106.795 52.6895 106.967 52.087 107.355 51.9794C107.591 51.9149 107.828 51.9364 107.892 52.0009C108.151 52.2376 108 52.8617 107.677 52.9908C107.268 53.1414 107.268 53.1414 107.096 52.9693Z" fill="white"/>
<path d="M114.778 52.8185C114.541 52.1945 114.8 51.7211 115.402 51.6565C115.854 51.592 115.983 51.678 115.983 52.0223C115.983 52.7324 115.746 53.1198 115.316 53.1198C115.079 53.1198 114.843 52.9907 114.778 52.8185Z" fill="white"/>
<path d="M108.602 52.5384C108.344 52.3017 108.43 51.8713 108.796 51.7422C109.205 51.5916 110.066 52.0219 109.829 52.2586C109.528 52.5168 108.753 52.7105 108.602 52.5384Z" fill="white"/>
<path d="M110.474 52.0003C110.281 51.6991 110.969 51.1826 111.529 51.1826C111.787 51.1826 111.894 51.3117 111.851 51.5484C111.765 51.9788 110.668 52.3231 110.474 52.0003Z" fill="white"/>
<path d="M104.578 51.85C104.578 51.7424 104.514 51.5057 104.449 51.3121C104.385 51.1184 104.406 50.9678 104.535 50.9678C104.815 50.9678 105.03 51.7855 104.772 51.9576C104.664 52.0222 104.578 51.9791 104.578 51.85Z" fill="white"/>
<path d="M105.159 51.3548C105.03 50.8814 105.289 50.5371 105.784 50.5371C106.063 50.5371 106.343 51.3763 106.171 51.6561C105.934 52.0219 105.267 51.8067 105.159 51.3548Z" fill="white"/>
<path d="M106.666 51.4623C106.343 51.1396 106.536 50.3649 106.967 50.2573C107.29 50.1712 107.462 50.2788 107.634 50.6662C107.763 50.9459 107.828 51.2256 107.785 51.2687C107.569 51.4623 106.795 51.613 106.666 51.4623Z" fill="white"/>
<path d="M112.476 51.4629C112.196 51.1832 112.325 51.011 112.971 50.7743C113.509 50.6022 113.659 50.6237 113.767 50.8819C113.961 51.3984 112.885 51.8933 112.476 51.4629Z" fill="white"/>
<path d="M114.369 50.9678C114.154 50.6235 114.455 50.3223 115.015 50.3223C115.682 50.3223 115.875 50.8817 115.273 51.0539C114.627 51.226 114.52 51.2045 114.369 50.9678Z" fill="white"/>
<path d="M116.198 50.451C116.198 50.1282 116.586 49.7839 116.758 49.9561C116.908 50.1067 116.607 50.7523 116.392 50.7523C116.284 50.7523 116.198 50.6231 116.198 50.451Z" fill="white"/>
<path d="M104.299 50.172C104.213 50.1074 104.148 49.8277 104.17 49.591C104.17 49.1822 104.191 49.1822 104.385 49.6556C104.6 50.172 104.557 50.4302 104.299 50.172Z" fill="white"/>
<path d="M104.708 49.8489C104.514 49.0958 104.535 49.0312 105.095 49.0312C105.719 49.0312 106.106 49.8274 105.633 50.1287C105.138 50.4299 104.858 50.3439 104.708 49.8489Z" fill="white"/>
<path d="M112.11 50.2791C112.11 50.2145 112.217 49.8702 112.347 49.4829C112.648 48.6222 113.315 48.5791 113.466 49.4183C113.53 49.7411 113.552 50.0209 113.53 50.0424C113.422 50.1715 112.11 50.3652 112.11 50.2791Z" fill="white"/>
<path d="M106.236 49.7412C106.15 49.6766 106.085 49.4184 106.085 49.1817C106.085 48.8374 106.15 48.8159 106.408 49.0311C106.58 49.1817 106.731 49.4399 106.731 49.5906C106.731 49.9134 106.472 49.9994 106.236 49.7412Z" fill="white"/>
<path d="M113.982 49.3107C113.853 48.6436 114.132 48.3424 114.8 48.4284C115.122 48.4715 115.23 48.6651 115.23 49.1385C115.23 49.6765 115.144 49.8056 114.67 49.8487C114.197 49.9132 114.089 49.8056 113.982 49.3107Z" fill="white"/>
<path d="M116.091 49.3972C115.811 48.5365 115.897 48.2782 116.478 48.2137C116.995 48.1491 117.059 48.2137 117.059 48.7732C117.059 49.2466 116.93 49.4402 116.607 49.5263C116.371 49.5909 116.134 49.5263 116.091 49.3972Z" fill="white"/>
<path d="M103.976 48.1699C103.976 47.7611 104.019 47.5889 104.084 47.8041C104.127 47.9978 104.127 48.3421 104.084 48.5573C104.019 48.7509 103.976 48.5788 103.976 48.1699Z" fill="white"/>
<path d="M104.514 48.4506C104.234 48.1924 104.363 47.3532 104.707 47.2241C105.202 47.0304 105.439 47.2671 105.439 47.9772C105.439 48.4291 105.331 48.6012 105.052 48.6012C104.837 48.6012 104.578 48.5367 104.514 48.4506Z" fill="white"/>
<path d="M105.805 47.8691C105.719 47.5463 105.676 47.202 105.762 47.1375C105.977 46.9223 106.106 47.2666 106.042 47.8906L105.977 48.4931L105.805 47.8691Z" fill="white"/>
<path d="M112.755 47.7182C112.755 47.4815 112.863 47.3524 112.971 47.417C113.1 47.4815 113.186 47.6967 113.186 47.8688C113.186 48.041 113.1 48.1701 112.971 48.1701C112.863 48.1701 112.755 47.9764 112.755 47.7182Z" fill="white"/>
<path d="M113.724 47.9986C113.423 47.6758 113.659 47.0948 114.154 46.9657C114.778 46.8151 114.8 46.8151 114.993 47.4391C115.122 47.8264 115.036 47.9125 114.477 47.9986C114.133 48.0631 113.788 48.0416 113.724 47.9986Z" fill="white"/>
<path d="M115.703 47.5893C115.467 47.3741 115.531 46.664 115.768 46.664C115.897 46.664 115.983 46.5779 115.983 46.4488C115.983 46.3412 115.854 46.2336 115.682 46.2336C115.316 46.2336 115.015 45.1792 115.316 44.8779C115.703 44.4906 116.134 44.8995 116.392 45.9539C116.543 46.5133 116.693 47.1589 116.758 47.3741C116.844 47.6538 116.758 47.7399 116.349 47.7399C116.069 47.7399 115.768 47.6753 115.703 47.5893Z" fill="white"/>
<path d="M116.865 46.4492C116.715 45.8037 116.327 44.5126 116.048 43.5658C115.617 42.1886 115.574 41.8443 115.811 41.6937C115.962 41.5861 116.155 41.5 116.22 41.5C116.456 41.5 117.317 45.9113 117.231 46.772L117.167 47.6327L116.865 46.4492Z" fill="white"/>
<path d="M103.761 46.341C103.761 45.9967 103.804 45.8676 103.868 46.0827C103.911 46.2764 103.911 46.5777 103.868 46.7283C103.804 46.8574 103.761 46.7068 103.761 46.341Z" fill="white"/>
<path d="M104.191 46.2987C104.277 45.5455 104.901 45.3734 105.074 46.062C105.224 46.6215 105.267 46.5569 104.622 46.7721C104.17 46.9012 104.127 46.8582 104.191 46.2987Z" fill="white"/>
<path d="M113.272 46.1047C113.1 45.4807 113.465 45.1149 114.154 45.2009C114.67 45.2655 114.864 46.1908 114.434 46.4705C113.896 46.8148 113.401 46.6642 113.272 46.1047Z" fill="white"/>
<path d="M105.439 45.9325C105.439 45.5667 105.547 45.373 105.783 45.373C105.998 45.373 106.085 45.5237 106.041 45.8465C105.934 46.535 105.439 46.5996 105.439 45.9325Z" fill="white"/>
<path d="M103.524 45.0291C103.524 44.7924 103.589 44.7278 103.653 44.9C103.718 45.0506 103.696 45.2443 103.632 45.3088C103.567 45.3949 103.503 45.2658 103.524 45.0291Z" fill="white"/>
<path d="M103.933 44.9646C103.933 44.6418 104.062 44.5127 104.385 44.5127C104.686 44.5127 104.794 44.6203 104.751 44.8785C104.643 45.438 103.933 45.5025 103.933 44.9646Z" fill="white"/>
<path d="M105.116 44.7703C104.966 44.3829 104.966 44.3829 105.611 44.2108C105.999 44.0817 106.085 44.1462 106.085 44.469C106.085 44.9854 105.31 45.2437 105.116 44.7703Z" fill="white"/>
<path d="M112.906 44.4691C112.755 43.9311 113.035 43.6514 113.788 43.6514C114.154 43.6514 114.262 43.7805 114.262 44.1893C114.262 44.5121 114.133 44.7273 113.96 44.7273C113.788 44.7273 113.509 44.7918 113.336 44.8564C113.143 44.921 112.992 44.7918 112.906 44.4691Z" fill="white"/>
<path d="M114.778 43.9748C114.606 43.5445 114.864 43.2217 115.359 43.2217C115.66 43.2217 115.768 43.3723 115.768 43.7596C115.768 44.147 115.66 44.2976 115.337 44.2976C115.101 44.2976 114.842 44.147 114.778 43.9748Z" fill="white"/>
<path d="M103.718 43.6729C103.718 43.221 104.213 42.7046 104.428 42.9413C104.514 43.0059 104.579 43.3071 104.579 43.5868C104.579 43.9311 104.449 44.0818 104.148 44.0818C103.868 44.0818 103.718 43.9311 103.718 43.6729Z" fill="white"/>
<path d="M104.901 43.4148C104.729 42.8768 104.923 42.6401 105.655 42.5325C106.322 42.4465 106.537 43.1566 105.956 43.5869C105.396 43.9958 105.052 43.9312 104.901 43.4148Z" fill="white"/>
<path d="M112.691 43.2861C112.54 43.157 112.476 42.3608 112.605 42.3608C112.626 42.3608 112.949 42.2747 113.336 42.1671C113.982 41.9735 114.025 41.995 114.004 42.576C113.982 43.0063 113.853 43.2215 113.53 43.3076C112.949 43.4582 112.863 43.4582 112.691 43.2861Z" fill="white"/>
<path d="M111.895 42.7908C111.895 42.6402 111.959 42.5756 112.045 42.6402C112.11 42.7262 112.11 42.8553 112.045 42.9414C111.959 43.006 111.895 42.9414 111.895 42.7908Z" fill="white"/>
<path d="M114.305 42.4463C114.369 42.0805 115.036 41.5426 115.187 41.7147C115.251 41.7793 115.359 42.0375 115.424 42.3172C115.574 42.7476 115.51 42.7906 114.907 42.7906C114.391 42.7906 114.24 42.7046 114.305 42.4463Z" fill="white"/>
<path d="M103.933 42.4251C103.933 42.3175 104.041 42.1023 104.148 41.9301C104.32 41.6719 104.363 41.6934 104.363 42.1023C104.363 42.3605 104.277 42.5757 104.148 42.5757C104.041 42.5757 103.933 42.5111 103.933 42.4251Z" fill="white"/>
<path d="M104.579 41.9512C104.579 41.3487 105.03 41.155 105.375 41.6069C105.59 41.9297 105.59 42.0373 105.375 42.1879C104.923 42.4676 104.579 42.3816 104.579 41.9512Z" fill="white"/>
<path d="M111.12 41.6714C110.733 41.241 110.733 41.2195 111.098 41.3486C111.314 41.4347 111.593 41.4993 111.701 41.4993C111.808 41.4993 111.895 41.6499 111.895 41.822C111.895 42.2739 111.593 42.2309 111.12 41.6714Z" fill="white"/>
<path d="M106.494 41.6501C105.568 40.94 105.439 39.3477 106.3 39.3477C106.881 39.3477 107.419 40.2514 107.333 41.0906C107.268 41.8653 107.01 42.0375 106.494 41.6501Z" fill="white"/>
<path d="M112.39 41.7799C112.476 41.7153 112.605 41.7153 112.691 41.7799C112.755 41.8659 112.691 41.9305 112.54 41.9305C112.39 41.9305 112.325 41.8659 112.39 41.7799Z" fill="white"/>
<path d="M115.639 40.9403C115.703 40.7466 115.768 40.5529 115.768 40.5099C115.768 40.4669 115.876 40.4238 115.983 40.4238C116.112 40.4238 116.198 40.6175 116.198 40.8542C116.198 41.1124 116.048 41.2846 115.854 41.2846C115.617 41.2846 115.553 41.177 115.639 40.9403Z" fill="white"/>
<path d="M104.363 40.8761C104.363 40.3812 104.815 39.5635 105.073 39.5635C105.525 39.5635 105.202 40.9407 104.729 41.0267C104.535 41.0698 104.363 41.0052 104.363 40.8761Z" fill="white"/>
<path d="M109.205 40.6393L108.56 40.4887L109.141 40.3381C109.743 40.1659 110.173 40.295 110.173 40.6608C110.173 40.876 110.152 40.876 109.205 40.6393Z" fill="white"/>
<path d="M108.452 39.6056C108.452 38.7234 108.947 38.5943 109.398 39.3689C109.7 39.8854 109.721 39.993 109.442 39.993C109.269 39.993 108.99 40.0575 108.796 40.1221C108.538 40.2297 108.452 40.1006 108.452 39.6056Z" fill="white"/>
<path d="M112.196 39.9078C111.228 39.4774 110.604 38.3369 110.604 36.9813C110.604 36.013 110.69 35.7763 111.271 35.2383C111.636 34.894 112.002 34.6143 112.11 34.6143C112.583 34.6143 114.326 36.2712 114.907 37.3041L115.574 38.4876L114.864 39.2407C114.046 40.1014 113.143 40.3381 112.196 39.9078Z" fill="white"/>
<path d="M107.699 39.348C107.634 39.2404 107.677 39.1328 107.785 39.1328C107.914 39.1328 108.022 39.2404 108.022 39.348C108.022 39.4771 107.979 39.5632 107.935 39.5632C107.871 39.5632 107.763 39.4771 107.699 39.348Z" fill="white"/>
<path d="M104.88 39.0037C104.944 38.8101 105.009 38.6164 105.009 38.5734C105.009 38.5303 105.203 38.4873 105.439 38.4873C105.977 38.4873 105.999 38.8316 105.461 39.1329C104.88 39.4341 104.729 39.4126 104.88 39.0037Z" fill="white"/>
<path d="M106.58 38.7452C106.085 38.6806 105.934 38.4009 106.257 38.2072C106.343 38.1426 106.73 38.0351 107.118 37.949C107.699 37.8199 107.806 37.8629 107.806 38.2287C107.806 38.6806 107.354 38.8743 106.58 38.7452Z" fill="white"/>
<path d="M108.237 38.0137C108.237 37.7555 108.258 37.6049 108.301 37.6479C108.323 37.691 108.495 37.9061 108.646 38.1213C108.904 38.4226 108.882 38.4871 108.581 38.4871C108.366 38.4871 108.237 38.315 108.237 38.0137Z" fill="white"/>
<path d="M105.224 37.8628C105.224 37.7337 105.332 37.5831 105.439 37.5185C105.568 37.4539 105.654 37.54 105.654 37.7122C105.654 37.9058 105.568 38.0565 105.439 38.0565C105.332 38.0565 105.224 37.9704 105.224 37.8628Z" fill="white"/>
<path d="M106.02 37.54C105.848 37.1097 107.376 36.6363 107.634 37.0451C107.828 37.3894 107.634 37.54 106.817 37.7122C106.322 37.8198 106.106 37.7767 106.02 37.54Z" fill="white"/>
<path d="M108.043 36.8514C108.043 36.6147 108.107 36.5501 108.172 36.7223C108.236 36.8729 108.215 37.0666 108.15 37.1311C108.086 37.2172 108.021 37.0881 108.043 36.8514Z" fill="white"/>
<path d="M106.214 36.5078C106.472 36.0344 107.225 35.2598 107.419 35.2598C107.634 35.2598 107.656 36.2711 107.441 36.4002C107.333 36.4433 106.989 36.5509 106.666 36.6369C106.193 36.7445 106.085 36.723 106.214 36.5078Z" fill="white"/>
<path d="M107.935 36.0124C107.699 35.3669 107.806 35.0871 108.323 35.0011C108.861 34.8935 108.861 34.8935 108.516 35.5605C108.086 36.4213 108.108 36.4213 107.935 36.0124Z" fill="white"/>
<path d="M107.806 34.7215C107.806 34.6785 108.237 34.3772 108.774 34.076C109.42 33.6886 109.872 33.5595 110.195 33.6456C110.582 33.7747 110.474 33.8608 109.528 34.3127C108.473 34.7861 107.806 34.9582 107.806 34.7215Z" fill="white"/>
<path d="M119.749 15.6565C119.168 14.8173 117.941 13.4616 117.059 12.6439C116.177 11.8262 115.596 11.1592 115.768 11.1592C116.241 11.1592 119.857 12.149 120.76 12.5364C121.513 12.8591 121.535 12.9022 121.341 13.5692C121.234 13.9566 121.148 14.9249 121.148 15.7211C121.148 16.5388 121.083 17.1843 120.997 17.1843C120.889 17.1843 120.351 16.4957 119.749 15.6565Z" fill="white"/>
<path d="M75.959 80.8351C75.0767 80.3832 74.883 80.125 73.7641 77.9086C72.1502 74.7669 72.1072 74.0353 73.635 75.8213C74.2375 76.5314 75.6362 77.9947 76.7336 79.0706C78.6057 80.8781 78.6918 81.0073 78.0678 80.9212C77.6159 80.8566 77.4437 80.8997 77.5513 81.0718C77.8095 81.4591 76.9918 81.3515 75.959 80.8351Z" fill="white"/>
<path fill-rule="evenodd" clip-rule="evenodd" d="M112.021 120.04C111.843 119.616 112.042 119.127 112.466 118.949L112.93 118.752C117.437 116.823 120.024 115.665 121.782 113.825C123.54 111.985 123.751 109.283 124.081 107.639C124.172 107.188 125.193 107.98 125.644 108.071C126.096 108.162 126.388 108.601 126.297 109.052C125.9 111.029 124.831 112.914 123.109 114.703C121.394 116.486 118.072 118.397 113.113 120.485C112.689 120.663 112.2 120.464 112.021 120.04Z" fill="#2A2F33"/>
<path fill-rule="evenodd" clip-rule="evenodd" d="M132.404 34.1818C132.8 33.9464 133.311 34.0762 133.547 34.4717C135.904 38.4314 137.167 42.9579 137.167 47.6672C137.167 61.9346 125.601 73.5006 111.333 73.5006C107.542 73.5006 103.865 72.6828 100.498 71.125C100.08 70.9317 98.5023 69.3929 100.091 70.0187C101.681 70.6446 107.829 72.0493 111.378 72.0493C124.724 72.0493 134.167 61.0141 134.167 47.6672C134.167 43.26 132.404 39.3482 132.115 35.3242C132.081 34.8577 132.009 34.4173 132.404 34.1818Z" fill="#2A2F33"/>
<path fill-rule="evenodd" clip-rule="evenodd" d="M49.8732 97.2524C50.1678 96.8987 50.6932 96.1842 51.0469 96.4787C52.4976 97.6871 54.0457 99.0871 55.7017 99.3573C57.4249 99.6385 59.4692 99.6385 61.8319 99.3525C62.2888 99.2972 62.7041 99.6227 62.7594 100.08C62.8147 100.537 62.4891 100.952 62.0322 101.007C59.5231 101.311 57.3243 101.311 55.4332 101.002C53.4749 100.683 51.6537 99.82 49.9802 98.426C49.6266 98.1314 49.5787 97.606 49.8732 97.2524Z" fill="#2A2F33"/>
<path d="M67.5665 68.0962C66.4906 67.2355 64.1881 64.6963 62.4451 62.4584C61.5414 61.2749 60.53 58.8649 59.9275 56.4333C59.6477 55.3358 59.368 54.346 59.3035 54.2169C59.2174 54.1093 58.8731 52.5815 58.5288 50.817C58.0124 48.3209 58.1216 47.5167 57.6681 44.531C57.476 43.2668 57.3022 42.2609 57.3022 42.2609L57.8617 41.5426C58.1845 41.1122 58.5928 40.4 58.744 39.9933C59.4326 38.1404 64.4894 32.3327 64.64 32.4833C64.6831 32.5264 64.5109 33.5377 64.2096 34.7213C63.9299 35.9048 63.5856 37.6908 63.435 38.7022C63.2198 40.3806 63.1337 40.5743 62.4667 41.1337C61.6274 41.8438 60.0351 44.1248 60.0351 44.5982C60.0351 45.2437 61.0034 44.8134 62.0148 43.759L63.0477 42.6831V43.8666C63.0477 44.6412 62.897 45.3513 62.6173 45.9108C62.0793 46.9652 62.0793 48.0842 62.5958 48.9449C62.854 49.3753 63.0907 50.4081 63.2413 51.6347C63.9084 57.1864 65.3286 62.0065 67.7602 66.8482C68.3627 68.0532 68.8361 69.043 68.8146 69.043C68.7715 69.043 68.2121 68.6127 67.5665 68.0962Z" fill="white"/>
<path fill-rule="evenodd" clip-rule="evenodd" d="M157.104 81.3729L158.654 82.0615C158.975 82.2098 162.519 83.9127 166.776 85.9582C173.64 89.2561 182.357 93.4448 182.41 93.4448C182.496 93.4448 182.9 92.511 182.991 91.422C183.206 89.0765 184.002 85.8918 184.928 83.6754C185.358 82.6856 185.702 81.4485 185.702 81.3409C185.702 81.2918 185.353 81.1506 184.78 80.9196C184.098 80.6447 183.101 80.2423 182.001 79.716C176.579 77.1123 165.97 71.7973 164.657 71.0011C163.366 70.248 163.108 70.1834 163.108 70.6783C163.108 71.3239 161.795 74.3149 160.784 75.9288C160.246 76.8111 159.192 78.4034 158.439 79.4578L157.104 81.3729ZM182.044 89.5712C182.661 89.9288 181.592 90.4534 181.334 90.5395C179.814 90.6686 178.024 90.3827 176.557 89.5281C175.79 88.9843 169.752 85.6298 165.747 83.4046C163.916 82.3873 162.509 81.606 162.226 81.4372C161.322 80.8993 160.461 80.3183 160.311 80.1461C159.859 79.5651 160.289 79.3069 161.559 79.4145C162.322 79.4792 180.711 88.7987 182.044 89.5712Z" fill="white"/>
<path d="M141.654 83.3098C141.095 83.1162 140.492 82.6858 140.105 82.1909L139.459 81.3947L141.74 79.1353C145.248 75.6923 147.83 71.9296 150.154 67.7335C150.929 66.3348 153.231 60.694 153.511 60.07C153.941 59.1662 154.264 58.8219 155.189 58.3055C156.287 57.6599 157.535 57.4448 158.073 57.8106C159.106 58.4992 159.106 60.6725 158.073 64.4167C156.932 68.5267 155.405 71.4747 152.241 75.7139C151.746 76.3594 150.821 77.629 150.154 78.5112C148.368 80.8783 147.206 82.0187 145.635 82.901C144.086 83.7617 143.182 83.8693 141.654 83.3098Z" fill="white"/>
<path d="M149.767 82.8151L149.315 82.3632C149.315 82.3632 156.815 72.8342 158.159 69.3231C159.185 66.6436 159.788 65.8838 160.603 65.8838C161.058 65.8838 161.43 65.9877 161.602 66.246C161.903 66.6978 162.193 67.2573 161.806 69.1725C161.161 72.2711 160.171 74.3154 157.201 78.7266C156.513 79.738 155.63 80.8569 155.243 81.2443C154.339 82.0835 152.306 82.9442 151.122 83.1379C150.369 83.2455 150.154 83.2024 149.767 82.8151Z" fill="white"/>
<path fill-rule="evenodd" clip-rule="evenodd" d="M162.365 72.8505C162.799 71.8576 163.108 70.9917 163.108 70.6783C163.108 70.1834 163.366 70.248 164.658 71.0011C165.97 71.7973 176.579 77.1123 182.001 79.716C184.024 80.6844 185.702 81.2333 185.702 81.3409C185.702 81.4485 161.905 73.9031 162.365 72.8505Z" fill="white"/>
<path fill-rule="evenodd" clip-rule="evenodd" d="M88.7407 74.0786C86.0079 72.2926 81.8763 68.0965 79.8751 65.1055C77.0132 60.8018 75.1196 56.1968 74.1943 51.2476C73.5272 47.6541 73.5487 42.1238 74.2158 38.9176C74.9044 35.6468 75.7866 33.1507 77.3575 29.9875C79.1865 26.3294 81.1232 23.6396 84.0282 20.7346C86.8769 17.8859 74.2158 29.6665 77.3575 50.7446C79.8751 68.408 90.6951 75.3663 88.7407 74.0786Z" fill="white"/>
<path d="M34.26 198.74C35.4867 199.447 36.1 200.513 36.1 201.94C36.1 203.127 35.68 204.1 34.84 204.86C34 205.62 32.9667 206 31.74 206H25.8V192H31.32C32.5067 192 33.5133 192.373 34.34 193.12C35.1667 193.867 35.58 194.807 35.58 195.94C35.58 197.1 35.14 198.033 34.26 198.74ZM31.32 194.58H28.56V197.66H31.32C31.7467 197.66 32.1 197.513 32.38 197.22C32.6733 196.927 32.82 196.56 32.82 196.12C32.82 195.68 32.68 195.313 32.4 195.02C32.12 194.727 31.76 194.58 31.32 194.58ZM28.56 203.42H31.74C32.2067 203.42 32.5933 203.267 32.9 202.96C33.2067 202.64 33.36 202.24 33.36 201.76C33.36 201.293 33.2067 200.907 32.9 200.6C32.5933 200.28 32.2067 200.12 31.74 200.12H28.56V203.42ZM40.3694 199.2H42.3094C43.4427 199.2 44.356 199.513 45.0494 200.14C45.7427 200.753 46.0894 201.573 46.0894 202.6C46.0894 203.627 45.7427 204.453 45.0494 205.08C44.356 205.693 43.4427 206 42.3094 206H37.7894V196H40.3694V199.2ZM47.1894 206V196H49.7694V206H47.1894ZM40.3694 203.72H42.3294C42.6894 203.72 42.9827 203.62 43.2094 203.42C43.4494 203.207 43.5694 202.933 43.5694 202.6C43.5694 202.267 43.4494 201.993 43.2094 201.78C42.9827 201.567 42.6894 201.46 42.3294 201.46H40.3694V203.72ZM52.1253 196H61.2653V206H58.6853V198.42H54.7053V206H52.1253V196ZM72.1492 204.76C71.1359 205.773 69.8826 206.28 68.3892 206.28C66.8959 206.28 65.6426 205.773 64.6292 204.76C63.6159 203.747 63.1092 202.493 63.1092 201C63.1092 199.52 63.6159 198.273 64.6292 197.26C65.6559 196.233 66.9092 195.72 68.3892 195.72C69.8692 195.72 71.1226 196.233 72.1492 197.26C73.1759 198.287 73.6892 199.533 73.6892 201C73.6892 202.48 73.1759 203.733 72.1492 204.76ZM66.4492 202.98C66.9692 203.5 67.6159 203.76 68.3892 203.76C69.1626 203.76 69.8092 203.5 70.3292 202.98C70.8492 202.46 71.1092 201.8 71.1092 201C71.1092 200.2 70.8492 199.54 70.3292 199.02C69.8092 198.5 69.1626 198.24 68.3892 198.24C67.6159 198.24 66.9692 198.5 66.4492 199.02C65.9426 199.553 65.6892 200.213 65.6892 201C65.6892 201.787 65.9426 202.447 66.4492 202.98ZM75.9103 196H83.8303V206H81.2503V198.48H78.4903V201.82C78.4903 204.9 77.0836 206.293 74.2703 206V203.58C74.8036 203.713 75.2103 203.62 75.4903 203.3C75.7703 202.98 75.9103 202.44 75.9103 201.68V196ZM92.7283 199.78V196H95.3083V206H92.7283V202.2H88.7483V206H86.1683V196H88.7483V199.78H92.7283ZM101.012 196H105.692V206H103.172V202.88H102.272L99.9722 206H96.9922L99.4922 202.58C98.8522 202.313 98.3389 201.893 97.9522 201.32C97.5789 200.747 97.3922 200.12 97.3922 199.44C97.3922 198.52 97.7255 197.713 98.3922 197.02C99.0455 196.34 99.9189 196 101.012 196ZM103.172 198.3H101.212C100.839 198.3 100.526 198.413 100.272 198.64C100.032 198.867 99.9122 199.16 99.9122 199.52C99.9122 199.88 100.032 200.167 100.272 200.38C100.526 200.593 100.839 200.7 101.212 200.7H103.172V198.3ZM117.763 202.06H110.223C110.557 203.313 111.497 203.94 113.043 203.94C114.03 203.94 114.777 203.607 115.283 202.94L117.363 204.14C116.377 205.567 114.923 206.28 113.003 206.28C111.35 206.28 110.023 205.78 109.023 204.78C108.023 203.78 107.523 202.52 107.523 201C107.523 199.507 108.017 198.253 109.003 197.24C109.977 196.227 111.243 195.72 112.803 195.72C114.283 195.72 115.49 196.227 116.423 197.24C117.383 198.253 117.863 199.507 117.863 201C117.863 201.28 117.83 201.633 117.763 202.06ZM110.183 200.06H115.283C115.137 199.407 114.837 198.907 114.383 198.56C113.943 198.213 113.417 198.04 112.803 198.04C112.11 198.04 111.537 198.22 111.083 198.58C110.63 198.927 110.33 199.42 110.183 200.06ZM118.294 196H127.154V198.48H124.034V206H121.454V198.48H118.294V196ZM132.901 206.28C131.394 206.28 130.134 205.773 129.121 204.76C128.121 203.747 127.621 202.493 127.621 201C127.621 199.507 128.121 198.253 129.121 197.24C130.134 196.227 131.394 195.72 132.901 195.72C133.874 195.72 134.761 195.953 135.561 196.42C136.361 196.887 136.968 197.513 137.381 198.3L135.161 199.6C134.961 199.187 134.654 198.86 134.241 198.62C133.841 198.38 133.388 198.26 132.881 198.26C132.108 198.26 131.468 198.52 130.961 199.04C130.454 199.547 130.201 200.2 130.201 201C130.201 201.773 130.454 202.427 130.961 202.96C131.468 203.467 132.108 203.72 132.881 203.72C133.401 203.72 133.861 203.607 134.261 203.38C134.674 203.14 134.981 202.813 135.181 202.4L137.421 203.68C136.981 204.48 136.354 205.113 135.541 205.58C134.741 206.047 133.861 206.28 132.901 206.28ZM141.989 196H146.669V206H144.149V202.88H143.249L140.949 206H137.969L140.469 202.58C139.829 202.313 139.315 201.893 138.929 201.32C138.555 200.747 138.369 200.12 138.369 199.44C138.369 198.52 138.702 197.713 139.369 197.02C140.022 196.34 140.895 196 141.989 196ZM144.149 198.3H142.189C141.815 198.3 141.502 198.413 141.249 198.64C141.009 198.867 140.889 199.16 140.889 199.52C140.889 199.88 141.009 200.167 141.249 200.38C141.502 200.593 141.815 200.7 142.189 200.7H144.149V198.3ZM154.02 196H163.16V206H160.58V198.42H156.6V206H154.02V196ZM174.044 204.76C173.03 205.773 171.777 206.28 170.284 206.28C168.79 206.28 167.537 205.773 166.524 204.76C165.51 203.747 165.004 202.493 165.004 201C165.004 199.52 165.51 198.273 166.524 197.26C167.55 196.233 168.804 195.72 170.284 195.72C171.764 195.72 173.017 196.233 174.044 197.26C175.07 198.287 175.584 199.533 175.584 201C175.584 202.48 175.07 203.733 174.044 204.76ZM168.344 202.98C168.864 203.5 169.51 203.76 170.284 203.76C171.057 203.76 171.704 203.5 172.224 202.98C172.744 202.46 173.004 201.8 173.004 201C173.004 200.2 172.744 199.54 172.224 199.02C171.704 198.5 171.057 198.24 170.284 198.24C169.51 198.24 168.864 198.5 168.344 199.02C167.837 199.553 167.584 200.213 167.584 201C167.584 201.787 167.837 202.447 168.344 202.98ZM179.919 201.68L184.619 196H186.539V206H184.019V200.32L179.319 206H177.399V196H179.919V201.68ZM193.663 206.28C192.156 206.28 190.896 205.773 189.883 204.76C188.883 203.747 188.383 202.493 188.383 201C188.383 199.507 188.883 198.253 189.883 197.24C190.896 196.227 192.156 195.72 193.663 195.72C194.636 195.72 195.523 195.953 196.323 196.42C197.123 196.887 197.729 197.513 198.143 198.3L195.923 199.6C195.723 199.187 195.416 198.86 195.003 198.62C194.603 198.38 194.149 198.26 193.643 198.26C192.869 198.26 192.229 198.52 191.723 199.04C191.216 199.547 190.963 200.2 190.963 201C190.963 201.773 191.216 202.427 191.723 202.96C192.229 203.467 192.869 203.72 193.643 203.72C194.163 203.72 194.623 203.607 195.023 203.38C195.436 203.14 195.743 202.813 195.943 202.4L198.183 203.68C197.743 204.48 197.116 205.113 196.303 205.58C195.503 206.047 194.623 206.28 193.663 206.28ZM204.705 200.94L208.845 206H205.845L202.205 201.46V206H199.625V196H202.205V200.4L205.645 196H208.725L204.705 200.94ZM213.333 204.56C213.333 205.027 213.166 205.427 212.833 205.76C212.5 206.093 212.1 206.26 211.633 206.26C211.166 206.26 210.766 206.093 210.433 205.76C210.1 205.427 209.933 205.027 209.933 204.56C209.933 204.093 210.1 203.693 210.433 203.36C210.766 203.027 211.166 202.86 211.633 202.86C212.1 202.86 212.5 203.027 212.833 203.36C213.166 203.693 213.333 204.093 213.333 204.56ZM218.685 204.56C218.685 205.027 218.518 205.427 218.185 205.76C217.851 206.093 217.451 206.26 216.985 206.26C216.518 206.26 216.118 206.093 215.785 205.76C215.451 205.427 215.285 205.027 215.285 204.56C215.285 204.093 215.451 203.693 215.785 203.36C216.118 203.027 216.518 202.86 216.985 202.86C217.451 202.86 217.851 203.027 218.185 203.36C218.518 203.693 218.685 204.093 218.685 204.56ZM224.036 204.56C224.036 205.027 223.87 205.427 223.536 205.76C223.203 206.093 222.803 206.26 222.336 206.26C221.87 206.26 221.47 206.093 221.136 205.76C220.803 205.427 220.636 205.027 220.636 204.56C220.636 204.093 220.803 203.693 221.136 203.36C221.47 203.027 221.87 202.86 222.336 202.86C222.803 202.86 223.203 203.027 223.536 203.36C223.87 203.693 224.036 204.093 224.036 204.56Z" fill="#2A2F33"/>
</svg>
