<svg width="20" height="20" viewBox="0 0 20 20" fill="none" xmlns="http://www.w3.org/2000/svg">
<path d="M14.9335 11.9335C14.7169 12.1418 14.6169 12.4493 14.6677 12.7418L15.4085 16.8418C15.4677 17.1918 15.326 17.541 15.0335 17.7418C14.7502 17.9502 14.3752 17.9752 14.0585 17.8085L10.3677 15.8835C10.2335 15.8168 10.0919 15.7743 9.95102 15.7743H9.72519C9.64185 15.7827 9.56769 15.8168 9.50019 15.8493L5.80852 17.7835C5.62519 17.8752 5.41685 17.9085 5.21685 17.8752C4.71685 17.7752 4.39269 17.3077 4.47519 16.816L5.21685 12.716C5.26685 12.4168 5.16685 12.1168 4.95102 11.9002L1.94185 8.9835C1.69185 8.7335 1.60019 8.37433 1.71769 8.04183C1.82602 7.716 2.10852 7.47433 2.45852 7.41683L6.60018 6.816C6.91685 6.78266 7.19185 6.59183 7.33352 6.3085L9.15852 2.56683C9.20018 2.4835 9.25852 2.40766 9.32602 2.34183L9.40019 2.2835C9.43352 2.241 9.48352 2.2085 9.53435 2.17516L9.62519 2.14183L9.76685 2.0835H10.1177C10.4344 2.11683 10.7094 2.30766 10.851 2.58266L12.7002 6.3085C12.8335 6.5835 13.0919 6.76683 13.3919 6.816L17.5335 7.41683C17.8835 7.46683 18.176 7.7085 18.2919 8.04183C18.4002 8.37433 18.3085 8.74183 18.0502 8.9835L14.9335 11.9335Z" fill="#9E9C9F"/>
</svg>
